<?xml version="1.0" encoding="utf-8"?>
<!-- Generator: Adobe Illustrator 16.0.0, SVG Export Plug-In . SVG Version: 6.00 Build 0)  -->
<!DOCTYPE svg PUBLIC "-//W3C//DTD SVG 1.1//EN" "http://www.w3.org/Graphics/SVG/1.1/DTD/svg11.dtd">
<svg version="1.1" id="圖層_1" xmlns="http://www.w3.org/2000/svg" xmlns:xlink="http://www.w3.org/1999/xlink" x="0px" y="0px"
	 width="841.89px" height="595.28px" viewBox="0 0 841.89 595.28" enable-background="new 0 0 841.89 595.28" xml:space="preserve">

	 <style type="text/css">
	    <![CDATA[
	    svg {
	    	width:auto;
	    	width: 100vw;
		    height: 100vh;
	    	display: flex;
		  	justify-content: center;
		  	align-items: center;
	    	box-sizing: border-box;
	    }
	    
	    line[class*="color_box"] { 
	    	stroke: #ff8000; 
	    	transition: stroke 0.1s; 
	    }
    	line[class*="color_box"]:hover { 
    		stroke-width: 3;
    		stroke: #4e86b1; 
    	}

    	/*.hide {
    		display:none;
    	}*/
	    ]]>
	  </style>

<g>
	<g>
		<g id="XMLID_2_">
			<g>
				<polygon fill="#3E3A39" points="798.387,402.706 798.387,404.813 796.609,405.943 795.783,406.459 769.614,422.94 
					761.104,428.367 760.707,428.367 760.707,426.619 760.956,426.619 797.13,403.507 				"/>
				<polygon fill="#727171" points="798.387,402.706 797.13,403.507 760.707,426.619 565.688,426.619 646.649,402.973 				"/>
				<polygon fill="#FFFFFF" points="797.13,403.507 760.956,426.619 760.707,426.619 				"/>
				<path fill="#B5B5B6" d="M796.609,431.981v42.032l-0.091,0.036v4.884c0,0.644-1.505,1.159-3.35,1.159
					c-1.846,0-3.351-0.516-3.351-1.159v-2.686l-33.685,11.064v-58.596v-0.35h4.573v0.35l35.076-22.258l0.826-0.516v22.424V431.981z"
					/>
				<polygon fill="#FFFFFF" points="769.614,422.94 795.783,406.459 760.707,428.717 760.707,428.367 761.104,428.367 				"/>
				<polygon fill="#595757" points="760.707,426.619 760.707,428.367 756.134,428.367 565.688,428.367 565.688,426.619 				"/>
				<path fill="#898989" d="M756.134,490.283v12.591h-7.877v-0.073c-0.261,0.046-0.521,0.073-0.771,0.073
					c-3.837,0-7.085-5.279-8.229-12.591H582.665c-1.029,7.671-4.368,13.29-8.318,13.29c-0.261,0-0.521-0.027-0.77-0.073v0.073h-7.89
					v-13.29v-5.031v-37.516v-5.729v-13.29h190.446v58.596V490.283z"/>
			</g>
			<g>
				<polyline fill="none" stroke="#000000" stroke-linejoin="round" stroke-miterlimit="10" points="565.688,426.619 
					646.649,402.973 798.387,402.706 				"/>
				<path fill="none" stroke="#000000" stroke-linejoin="round" stroke-miterlimit="10" d="M756.134,428.717H565.688v13.29v5.729
					v37.516v5.031v13.29h7.89V503.5c0.249,0.046,0.509,0.073,0.77,0.073c3.95,0,7.289-5.619,8.318-13.29h156.593
					c1.144,7.312,4.392,12.591,8.229,12.591c0.249,0,0.51-0.027,0.771-0.073v0.073h7.877v-12.591v-2.971"/>
				<polyline fill="none" stroke="#000000" stroke-linejoin="round" stroke-miterlimit="10" points="756.134,428.367 
					565.688,428.367 565.688,426.619 760.707,426.619 				"/>
				<polyline fill="none" stroke="#000000" stroke-linejoin="round" stroke-miterlimit="10" points="760.707,428.367 
					760.707,426.619 797.13,403.507 798.387,402.706 798.387,404.813 796.609,405.943 				"/>
				<path fill="none" stroke="#000000" stroke-linejoin="round" stroke-miterlimit="10" d="M795.783,406.459l-26.169,16.481
					l-8.511,5.427h-0.396h-4.573v0.35v58.596l33.685-11.064v2.686c0,0.644,1.505,1.159,3.351,1.159c1.845,0,3.35-0.516,3.35-1.159
					v-4.884l0.091-0.036v-42.032v-3.614v-22.424L795.783,406.459z"/>
			</g>
		</g>
	</g>
	<g id="XMLID_1_">
		<g>
			<polygon fill="#595757" points="703.579,368.369 703.579,403.503 701.813,404.81 701.813,370.779 701.813,370.356 			"/>
			<polygon fill="#595757" points="703.579,368.369 701.813,370.356 651.688,370.356 654.787,368.369 			"/>
			<path fill="#1F1E1D" d="M701.813,370.779v34.03h-20.694v6.134h7.432c3.688,0,6.668,2.98,6.668,6.669
				c0,3.679-2.979,6.668-6.668,6.668h-23.913c-3.679,0-6.668-2.989-6.668-6.668c0-3.688,2.989-6.669,6.668-6.669h8.204v-6.134
				h-21.154v-34.03H701.813z"/>
		</g>
		<g>
			<path fill="none" stroke="#000000" stroke-linejoin="round" stroke-miterlimit="10" d="M701.813,370.779h-50.126v34.03h21.154
				v6.134h-8.204c-3.679,0-6.668,2.98-6.668,6.669c0,3.679,2.989,6.668,6.668,6.668h23.913c3.688,0,6.668-2.989,6.668-6.668
				c0-3.688-2.979-6.669-6.668-6.669h-7.432v-6.134h20.694"/>
			<polyline fill="none" stroke="#000000" stroke-linejoin="round" stroke-miterlimit="10" points="701.813,370.356 
				651.688,370.356 654.787,368.369 703.579,368.369 			"/>
			<polygon fill="none" stroke="#000000" stroke-linejoin="round" stroke-miterlimit="10" points="703.579,368.369 703.579,403.503 
				701.813,404.81 701.813,370.779 701.813,370.356 			"/>
		</g>
	</g>
	<g id="XMLID_3_">
		<g>
			<polygon fill="#172A88" points="771.407,412.76 757.611,421.497 757.611,412.07 			"/>
			<polygon fill="#1F1E1D" points="757.611,412.07 757.611,421.497 707.716,421.497 707.716,389.307 757.611,389.307 			"/>
		</g>
		<g>
			<polyline fill="none" stroke="#000000" stroke-linejoin="round" stroke-miterlimit="10" points="757.611,421.497 
				707.716,421.497 707.716,389.307 757.611,389.307 757.611,412.07 			"/>
			<polygon fill="none" stroke="#000000" stroke-linejoin="round" stroke-miterlimit="10" points="757.611,421.497 757.611,412.07 
				771.407,412.76 			"/>
			
				<line fill="none" stroke="#FFFFFF" stroke-linejoin="round" stroke-miterlimit="10" x1="710.245" y1="391.606" x2="753.703" y2="391.606"/>
		</g>
	</g>
	<g>
		<g id="XMLID_6_">
			<g>
				<polygon fill="#595757" points="646.473,369.114 631.601,386.662 603.779,386.662 619.874,369.114 				"/>
			</g>
			<g>
				<polygon fill="none" stroke="#000000" stroke-linejoin="round" stroke-miterlimit="10" points="603.779,386.662 
					631.601,386.662 646.473,369.114 619.874,369.114 				"/>
			</g>
		</g>
		<g id="XMLID_7_">
			<g>
				<rect x="603.779" y="386.662" fill="#3E3A39" width="27.821" height="37.479"/>
			</g>
			<g>
				
					<rect x="603.779" y="386.662" fill="none" stroke="#000000" stroke-linejoin="round" stroke-miterlimit="10" width="27.821" height="37.479"/>
			</g>
		</g>
		<g id="XMLID_5_" class="color_big">
			<g>
				<polygon fill="#1F1E1D" points="646.473,369.114 646.473,403.907 631.601,424.142 631.601,386.662 				"/>
			</g>
			<g>
				<polygon fill="none" stroke="#000000" stroke-linejoin="round" stroke-miterlimit="10" points="646.473,403.907 
					631.601,424.142 631.601,386.662 646.473,369.114 				"/>
			</g>
		</g>
		<g id="XMLID_4_">
			<g>
				<polygon fill="#727171" points="642.178,386.662 642.178,399.649 636.338,405.986 636.255,392.521 				"/>
			</g>
			<g>
				<polygon fill="none" stroke="#000000" stroke-linejoin="round" stroke-miterlimit="10" points="642.178,399.649 
					636.338,405.986 636.255,392.521 642.178,386.662 				"/>
			</g>
		</g>
		
			<line fill="none" stroke="#FFFFFF" stroke-width="0.75" stroke-linejoin="round" stroke-miterlimit="10" x1="637.924" y1="393.79" x2="637.924" y2="402.298"/>
		
			<line fill="none" stroke="#FFFFFF" stroke-width="0.75" stroke-linejoin="round" stroke-miterlimit="10" x1="639.216" y1="392.072" x2="639.216" y2="400.58"/>
		
			<line fill="none" stroke="#FFFFFF" stroke-width="0.75" stroke-linejoin="round" stroke-miterlimit="10" x1="640.568" y1="390.533" x2="640.568" y2="399.041"/>
	</g>
	<g>
		<g id="XMLID_8_">
			<g>
				<polygon fill="#3E3A39" points="646.863,362.67 646.863,368.648 639.212,378.38 639.212,372.484 				"/>
				<polygon fill="#B7E1EE" points="646.863,362.67 639.212,372.401 639.212,372.484 638.917,372.861 611.334,372.861 
					620.624,362.744 622.132,362.734 622.132,365.963 624.974,365.963 624.974,362.734 				"/>
				<rect x="611.334" y="372.861" fill="#172A88" width="27.583" height="5.297"/>
				<path fill="#172A88" d="M622.132,362.734v-10.153c-0.083-0.175-0.146-0.358-0.146-0.562c0-0.211,0.063-0.396,0.146-0.57v-0.662
					h1.076h0.69h1.075v0.662c0.083,0.175,0.147,0.359,0.147,0.57c0,0.203-0.064,0.387-0.147,0.562v10.153v3.229h-2.842V362.734z"/>
			</g>
			<g>
				<polyline fill="none" stroke="#000000" stroke-linejoin="round" stroke-miterlimit="10" points="638.917,372.861 
					638.917,378.158 611.334,378.158 611.334,372.861 				"/>
				<polyline fill="none" stroke="#000000" stroke-linejoin="round" stroke-miterlimit="10" points="624.515,362.734 
					624.974,362.734 646.863,362.67 639.212,372.484 638.917,372.861 611.334,372.861 620.624,362.744 622.132,362.734 
					622.564,362.734 				"/>
				<polygon fill="none" stroke="#000000" stroke-linejoin="round" stroke-miterlimit="10" points="646.863,362.67 646.863,368.648 
					639.212,378.38 639.212,372.484 639.212,372.401 				"/>
				<path fill="none" stroke="#000000" stroke-linejoin="round" stroke-miterlimit="10" d="M624.974,362.734v-10.153
					c0.083-0.175,0.147-0.358,0.147-0.562c0-0.211-0.064-0.396-0.147-0.57v-0.662h-1.075h-0.69h-1.076v0.662
					c-0.083,0.175-0.146,0.359-0.146,0.57c0,0.203,0.063,0.387,0.146,0.562v10.153v3.229h2.842V362.734z"/>
			</g>
		</g>
	</g>
</g>
<g>
	<g>
		<g>
			<g id="XMLID_16_">
				<g>
					<polygon fill="#6A3906" points="304.9,391.81 304.9,404.925 302.457,404.925 302.716,394.392 					"/>
					<polygon fill="#6A3906" points="304.9,386.949 304.9,391.654 295.023,403.846 295.334,398.536 					"/>
					<polygon fill="#6A3906" points="304.9,370.259 304.9,375.318 302.82,376.674 299.962,378.539 292.597,383.331 292.597,383.245 
						291.699,383.918 288.383,386.077 287.546,379.627 					"/>
					<polygon fill="#C9A063" points="304.9,386.949 295.334,398.536 289.739,398.536 289.739,397.31 292.597,397.31 
						292.597,386.949 299.962,386.949 299.962,389.125 302.82,389.125 302.82,386.949 					"/>
					<polygon fill="#C9A063" points="291.155,373.428 300.402,368.886 304.9,370.259 287.546,379.627 282.97,377.451 
						288.461,374.758 					"/>
					<polygon fill="#956134" points="302.82,386.949 302.82,389.125 299.962,389.125 299.962,386.949 299.962,378.539 
						302.82,376.674 					"/>
					<polygon fill="#956134" points="295.023,398.726 295.023,403.846 266.668,404.01 266.668,398.726 					"/>
					<polygon fill="#956134" points="292.597,386.949 292.597,397.31 289.739,397.31 289.739,386.949 289.739,385.386 
						291.699,383.918 292.597,383.331 					"/>
					<rect x="289.489" y="404.01" fill="#956134" width="2.443" height="13.107"/>
					<polygon fill="#727171" points="291.155,359.216 291.155,373.428 288.461,374.758 288.392,362.065 					"/>
					<polygon fill="#898989" points="291.155,355.106 291.155,359.216 266.357,384.678 251.766,399.658 252.18,393.942 					"/>
					<polygon fill="#C9CACA" points="291.155,355.106 252.18,393.942 214.034,393.942 252.595,356.186 					"/>
					<polygon fill="#C9A063" points="289.739,397.31 289.739,398.536 266.383,398.536 267.515,397.068 275.354,386.949 
						289.739,386.949 					"/>
					<polygon fill="#956134" points="287.546,379.627 288.383,386.077 282.97,384.453 282.97,377.451 					"/>
					<rect x="268.473" y="404.01" fill="#956134" width="2.443" height="13.107"/>
					<polygon fill="#727171" points="266.383,384.704 266.297,396.127 263.629,396.127 263.629,387.804 					"/>
					<polygon fill="#C9CACA" points="251.766,394.149 251.766,399.658 250.281,399.658 250.281,420.458 247.604,420.458 
						247.604,399.676 217.851,399.806 217.851,420.458 215.183,420.458 215.183,399.822 214.414,399.822 214.414,394.149 					"/>
				</g>
				<g>
					<polyline fill="none" stroke="#000000" stroke-linejoin="round" stroke-miterlimit="10" points="252.18,393.942 
						214.034,393.942 252.595,356.186 291.155,355.106 					"/>
					<polygon fill="none" stroke="#000000" stroke-linejoin="round" stroke-miterlimit="10" points="291.155,359.216 
						266.357,384.678 251.766,399.658 252.18,393.942 291.155,355.106 					"/>
					<polygon fill="none" stroke="#000000" stroke-linejoin="round" stroke-miterlimit="10" points="251.766,394.149 
						214.414,394.149 214.414,399.822 215.183,399.822 215.183,420.458 217.851,420.458 217.851,399.806 247.604,399.676 
						247.604,420.458 250.281,420.458 250.281,399.658 251.766,399.658 					"/>
					<polygon fill="none" stroke="#000000" stroke-linejoin="round" stroke-miterlimit="10" points="266.297,396.127 
						263.629,396.127 263.629,387.804 266.383,384.704 					"/>
					<polyline fill="none" stroke="#000000" stroke-linejoin="round" stroke-miterlimit="10" points="288.461,375.181 
						288.461,374.758 288.392,362.065 291.155,359.216 291.155,373.428 291.155,373.799 					"/>
					<polyline fill="none" stroke="#000000" stroke-linejoin="round" stroke-miterlimit="10" points="295.334,398.536 
						289.739,398.536 266.383,398.536 267.515,397.068 275.354,386.949 289.739,386.949 290.084,386.949 					"/>
					<polyline fill="none" stroke="#000000" stroke-linejoin="round" stroke-miterlimit="10" points="302.422,386.949 
						302.82,386.949 304.9,386.949 					"/>
					<polyline fill="none" stroke="#000000" stroke-linejoin="round" stroke-miterlimit="10" points="292.148,386.949 
						292.597,386.949 299.962,386.949 300.324,386.949 					"/>
					<polygon fill="none" stroke="#000000" stroke-linejoin="round" stroke-miterlimit="10" points="295.023,403.846 
						266.668,404.01 266.668,398.726 295.023,398.726 					"/>
					<polygon fill="none" stroke="#000000" stroke-linejoin="round" stroke-miterlimit="10" points="304.9,386.949 304.9,391.654 
						295.023,403.846 295.334,398.536 					"/>
					
						<rect x="268.473" y="404.01" fill="none" stroke="#000000" stroke-linejoin="round" stroke-miterlimit="10" width="2.443" height="13.107"/>
					
						<rect x="289.489" y="404.01" fill="none" stroke="#000000" stroke-linejoin="round" stroke-miterlimit="10" width="2.443" height="13.107"/>
					<polygon fill="none" stroke="#000000" stroke-linejoin="round" stroke-miterlimit="10" points="304.9,404.925 302.457,404.925 
						302.716,394.392 304.9,391.81 					"/>
					<polyline fill="none" stroke="#000000" stroke-linejoin="round" stroke-miterlimit="10" points="299.962,378.539 
						292.597,383.331 291.699,383.918 288.383,386.077 					"/>
					<polyline fill="none" stroke="#000000" stroke-linejoin="round" stroke-miterlimit="10" points="304.9,370.259 304.9,375.318 
						302.82,376.674 					"/>
					<polyline fill="none" stroke="#000000" stroke-linejoin="round" stroke-miterlimit="10" points="282.97,377.451 
						282.97,384.453 288.383,386.077 287.546,379.627 					"/>
					<polygon fill="none" stroke="#000000" stroke-linejoin="round" stroke-miterlimit="10" points="304.9,370.259 300.402,368.886 
						291.155,373.428 288.461,374.758 282.97,377.451 287.546,379.627 					"/>
					<polygon fill="none" stroke="#000000" stroke-linejoin="round" stroke-miterlimit="10" points="292.597,386.949 
						292.597,397.31 289.739,397.31 289.739,386.949 289.739,385.386 291.699,383.918 292.597,383.245 292.597,383.331 					"/>
					<polygon fill="none" stroke="#000000" stroke-linejoin="round" stroke-miterlimit="10" points="302.82,386.949 302.82,389.125 
						299.962,389.125 299.962,386.949 299.962,378.539 302.82,376.674 					"/>
				</g>
			</g>
		</g>
	</g>
	<g>
		<g>
			<g id="XMLID_17_">
				<g>
					<polygon fill="#6A3906" points="380.702,333.989 380.702,346.584 378.355,346.584 378.604,336.468 					"/>
					<polygon fill="#6A3906" points="380.702,329.32 380.702,333.84 371.216,345.548 371.515,340.448 					"/>
					<polygon fill="#6A3906" points="380.702,313.293 380.702,318.151 378.704,319.453 375.959,321.244 368.886,325.847 
						368.886,325.764 368.024,326.41 364.84,328.483 364.036,322.289 					"/>
					<polygon fill="#C9A063" points="380.702,329.32 371.515,340.448 366.142,340.448 366.142,339.271 368.886,339.271 
						368.886,329.32 375.959,329.32 375.959,331.41 378.704,331.41 378.704,329.32 					"/>
					<polygon fill="#C9A063" points="367.502,316.336 376.382,311.975 380.702,313.293 364.036,322.289 359.641,320.199 
						364.915,317.612 					"/>
					<polygon fill="#956134" points="378.704,329.32 378.704,331.41 375.959,331.41 375.959,329.32 375.959,321.244 
						378.704,319.453 					"/>
					<polygon fill="#956134" points="371.216,340.631 371.216,345.548 343.986,345.705 343.986,340.631 					"/>
					<polygon fill="#956134" points="368.886,329.32 368.886,339.271 366.142,339.271 366.142,329.32 366.142,327.819 
						368.024,326.41 368.886,325.847 					"/>
					<rect x="365.901" y="345.705" fill="#956134" width="2.347" height="12.587"/>
					<polygon fill="#727171" points="367.502,302.688 367.502,316.336 364.915,317.612 364.848,305.424 					"/>
					<polygon fill="#898989" points="367.502,298.741 367.502,302.688 343.688,327.14 329.675,341.526 330.073,336.037 					"/>
					<polygon fill="#C9CACA" points="367.502,298.741 330.073,336.037 293.44,336.037 330.471,299.777 					"/>
					<polygon fill="#C9A063" points="366.142,339.271 366.142,340.448 343.713,340.448 344.799,339.038 352.328,329.32 
						366.142,329.32 					"/>
					<polygon fill="#956134" points="364.036,322.289 364.84,328.483 359.641,326.924 359.641,320.199 					"/>
					<rect x="345.719" y="345.705" fill="#956134" width="2.347" height="12.587"/>
					<polygon fill="#727171" points="343.713,327.165 343.63,338.135 341.068,338.135 341.068,330.142 					"/>
					<polygon fill="#C9CACA" points="329.675,336.235 329.675,341.526 328.249,341.526 328.249,361.501 325.678,361.501 
						325.678,341.543 297.105,341.667 297.105,361.501 294.543,361.501 294.543,341.684 293.805,341.684 293.805,336.235 					"/>
				</g>
				<g>
					<polyline fill="none" stroke="#000000" stroke-linejoin="round" stroke-miterlimit="10" points="330.073,336.037 
						293.44,336.037 330.471,299.777 367.502,298.741 					"/>
					<polygon fill="none" stroke="#000000" stroke-linejoin="round" stroke-miterlimit="10" points="367.502,302.688 
						343.688,327.14 329.675,341.526 330.073,336.037 367.502,298.741 					"/>
					<polygon fill="none" stroke="#000000" stroke-linejoin="round" stroke-miterlimit="10" points="329.675,336.235 
						293.805,336.235 293.805,341.684 294.543,341.684 294.543,361.501 297.105,361.501 297.105,341.667 325.678,341.543 
						325.678,361.501 328.249,361.501 328.249,341.526 329.675,341.526 					"/>
					<polygon fill="none" stroke="#000000" stroke-linejoin="round" stroke-miterlimit="10" points="343.63,338.135 
						341.068,338.135 341.068,330.142 343.713,327.165 					"/>
					<polyline fill="none" stroke="#000000" stroke-linejoin="round" stroke-miterlimit="10" points="364.915,318.019 
						364.915,317.612 364.848,305.424 367.502,302.688 367.502,316.336 367.502,316.692 					"/>
					<polyline fill="none" stroke="#000000" stroke-linejoin="round" stroke-miterlimit="10" points="371.515,340.448 
						366.142,340.448 343.713,340.448 344.799,339.038 352.328,329.32 366.142,329.32 366.474,329.32 					"/>
					<polyline fill="none" stroke="#000000" stroke-linejoin="round" stroke-miterlimit="10" points="378.322,329.32 
						378.704,329.32 380.702,329.32 					"/>
					<polyline fill="none" stroke="#000000" stroke-linejoin="round" stroke-miterlimit="10" points="368.455,329.32 
						368.886,329.32 375.959,329.32 376.308,329.32 					"/>
					<polygon fill="none" stroke="#000000" stroke-linejoin="round" stroke-miterlimit="10" points="371.216,345.548 
						343.986,345.705 343.986,340.631 371.216,340.631 					"/>
					<polygon fill="none" stroke="#000000" stroke-linejoin="round" stroke-miterlimit="10" points="380.702,329.32 380.702,333.84 
						371.216,345.548 371.515,340.448 					"/>
					
						<rect x="345.719" y="345.705" fill="none" stroke="#000000" stroke-linejoin="round" stroke-miterlimit="10" width="2.347" height="12.587"/>
					
						<rect x="365.901" y="345.705" fill="none" stroke="#000000" stroke-linejoin="round" stroke-miterlimit="10" width="2.347" height="12.587"/>
					<polygon fill="none" stroke="#000000" stroke-linejoin="round" stroke-miterlimit="10" points="380.702,346.584 
						378.355,346.584 378.604,336.468 380.702,333.989 					"/>
					<polyline fill="none" stroke="#000000" stroke-linejoin="round" stroke-miterlimit="10" points="375.959,321.244 
						368.886,325.847 368.024,326.41 364.84,328.483 					"/>
					<polyline fill="none" stroke="#000000" stroke-linejoin="round" stroke-miterlimit="10" points="380.702,313.293 
						380.702,318.151 378.704,319.453 					"/>
					<polyline fill="none" stroke="#000000" stroke-linejoin="round" stroke-miterlimit="10" points="359.641,320.199 
						359.641,326.924 364.84,328.483 364.036,322.289 					"/>
					<polygon fill="none" stroke="#000000" stroke-linejoin="round" stroke-miterlimit="10" points="380.702,313.293 
						376.382,311.975 367.502,316.336 364.915,317.612 359.641,320.199 364.036,322.289 					"/>
					<polygon fill="none" stroke="#000000" stroke-linejoin="round" stroke-miterlimit="10" points="368.886,329.32 
						368.886,339.271 366.142,339.271 366.142,329.32 366.142,327.819 368.024,326.41 368.886,325.764 368.886,325.847 					"/>
					<polygon fill="none" stroke="#000000" stroke-linejoin="round" stroke-miterlimit="10" points="378.704,329.32 378.704,331.41 
						375.959,331.41 375.959,329.32 375.959,321.244 378.704,319.453 					"/>
				</g>
			</g>
		</g>
	</g>
	<g>
		<g>
			<g id="XMLID_18_">
				<g>
					<polygon fill="#6A3906" points="455.113,280.854 455.113,292.92 452.865,292.92 453.104,283.229 					"/>
					<polygon fill="#6A3906" points="455.113,276.382 455.113,280.711 446.026,291.927 446.312,287.042 					"/>
					<polygon fill="#6A3906" points="455.113,261.027 455.113,265.682 453.199,266.929 450.569,268.645 443.794,273.054 
						443.794,272.974 442.968,273.594 439.918,275.58 439.147,269.646 					"/>
					<polygon fill="#C9A063" points="455.113,276.382 446.312,287.042 441.165,287.042 441.165,285.914 443.794,285.914 
						443.794,276.382 450.569,276.382 450.569,278.383 453.199,278.383 453.199,276.382 					"/>
					<polygon fill="#C9A063" points="442.468,263.942 450.975,259.764 455.113,261.027 439.147,269.646 434.938,267.644 
						439.989,265.166 					"/>
					<polygon fill="#956134" points="450.569,276.382 450.569,268.645 453.199,266.929 453.199,276.382 453.199,278.383 
						450.569,278.383 					"/>
					<polygon fill="#956134" points="446.026,287.216 446.026,291.927 419.94,292.078 419.94,287.216 					"/>
					<polygon fill="#956134" points="443.794,276.382 443.794,285.914 441.165,285.914 441.165,276.382 441.165,274.944 
						442.968,273.594 443.794,273.054 					"/>
					<rect x="440.935" y="292.078" fill="#956134" width="2.248" height="12.058"/>
					<polygon fill="#727171" points="442.468,250.868 442.468,263.942 439.989,265.166 439.926,253.489 					"/>
					<polygon fill="#898989" points="442.468,247.087 442.468,250.868 419.654,274.292 406.23,288.074 406.611,282.816 					"/>
					<polygon fill="#C9CACA" points="442.468,247.087 406.611,282.816 371.518,282.816 406.993,248.08 					"/>
					<polygon fill="#C9A063" points="441.165,285.914 441.165,287.042 419.678,287.042 420.719,285.691 427.931,276.382 
						441.165,276.382 					"/>
					<polygon fill="#956134" points="439.147,269.646 439.918,275.58 434.938,274.086 434.938,267.644 					"/>
					<rect x="421.6" y="292.078" fill="#956134" width="2.249" height="12.058"/>
					<polygon fill="#727171" points="419.678,274.316 419.599,284.826 417.144,284.826 417.144,277.168 					"/>
					<polygon fill="#C9CACA" points="406.23,283.006 406.23,288.074 404.864,288.074 404.864,307.21 402.401,307.21 402.401,288.09 
						375.029,288.209 375.029,307.21 372.574,307.21 372.574,288.225 371.867,288.225 371.867,283.006 					"/>
				</g>
				<g>
					<polyline fill="none" stroke="#000000" stroke-linejoin="round" stroke-miterlimit="10" points="406.611,282.816 
						371.518,282.816 406.993,248.08 442.468,247.087 					"/>
					<polygon fill="none" stroke="#000000" stroke-linejoin="round" stroke-miterlimit="10" points="442.468,250.868 
						419.654,274.292 406.23,288.074 406.611,282.816 442.468,247.087 					"/>
					<polygon fill="none" stroke="#000000" stroke-linejoin="round" stroke-miterlimit="10" points="406.23,283.006 
						371.867,283.006 371.867,288.225 372.574,288.225 372.574,307.21 375.029,307.21 375.029,288.209 402.401,288.09 
						402.401,307.21 404.864,307.21 404.864,288.074 406.23,288.074 					"/>
					<polygon fill="none" stroke="#000000" stroke-linejoin="round" stroke-miterlimit="10" points="419.599,284.826 
						417.144,284.826 417.144,277.168 419.678,274.316 					"/>
					<polyline fill="none" stroke="#000000" stroke-linejoin="round" stroke-miterlimit="10" points="439.989,265.555 
						439.989,265.166 439.926,253.489 442.468,250.868 442.468,263.942 442.468,264.284 					"/>
					<polyline fill="none" stroke="#000000" stroke-linejoin="round" stroke-miterlimit="10" points="446.312,287.042 
						441.165,287.042 419.678,287.042 420.719,285.691 427.931,276.382 441.165,276.382 441.482,276.382 					"/>
					<polyline fill="none" stroke="#000000" stroke-linejoin="round" stroke-miterlimit="10" points="452.833,276.382 
						453.199,276.382 455.113,276.382 					"/>
					<polyline fill="none" stroke="#000000" stroke-linejoin="round" stroke-miterlimit="10" points="443.381,276.382 
						443.794,276.382 450.569,276.382 450.903,276.382 					"/>
					<polygon fill="none" stroke="#000000" stroke-linejoin="round" stroke-miterlimit="10" points="446.026,291.927 
						419.94,292.078 419.94,287.216 446.026,287.216 					"/>
					<polygon fill="none" stroke="#000000" stroke-linejoin="round" stroke-miterlimit="10" points="455.113,276.382 
						455.113,280.711 446.026,291.927 446.312,287.042 					"/>
					
						<rect x="421.6" y="292.078" fill="none" stroke="#000000" stroke-linejoin="round" stroke-miterlimit="10" width="2.249" height="12.058"/>
					
						<rect x="440.935" y="292.078" fill="none" stroke="#000000" stroke-linejoin="round" stroke-miterlimit="10" width="2.248" height="12.058"/>
					<polygon fill="none" stroke="#000000" stroke-linejoin="round" stroke-miterlimit="10" points="455.113,292.92 452.865,292.92 
						453.104,283.229 455.113,280.854 					"/>
					<polyline fill="none" stroke="#000000" stroke-linejoin="round" stroke-miterlimit="10" points="450.569,268.645 
						443.794,273.054 442.968,273.594 439.918,275.58 					"/>
					<polyline fill="none" stroke="#000000" stroke-linejoin="round" stroke-miterlimit="10" points="455.113,261.027 
						455.113,265.682 453.199,266.929 					"/>
					<polyline fill="none" stroke="#000000" stroke-linejoin="round" stroke-miterlimit="10" points="434.938,267.644 
						434.938,274.086 439.918,275.58 439.147,269.646 					"/>
					<polygon fill="none" stroke="#000000" stroke-linejoin="round" stroke-miterlimit="10" points="455.113,261.027 
						450.975,259.764 442.468,263.942 439.989,265.166 434.938,267.644 439.147,269.646 					"/>
					<polygon fill="none" stroke="#000000" stroke-linejoin="round" stroke-miterlimit="10" points="443.794,276.382 
						443.794,285.914 441.165,285.914 441.165,276.382 441.165,274.944 442.968,273.594 443.794,272.974 443.794,273.054 					"/>
					<polygon fill="none" stroke="#000000" stroke-linejoin="round" stroke-miterlimit="10" points="453.199,276.382 
						453.199,278.383 450.569,278.383 450.569,276.382 450.569,268.645 453.199,266.929 					"/>
				</g>
			</g>
		</g>
	</g>
	<g>
		<g>
			<g id="XMLID_21_">
				<g>
					<polygon fill="#6A3906" points="403.309,391.81 403.309,404.925 400.866,404.925 401.125,394.392 					"/>
					<polygon fill="#6A3906" points="403.309,386.949 403.309,391.654 393.432,403.846 393.743,398.536 					"/>
					<polygon fill="#6A3906" points="403.309,370.259 403.309,375.318 401.229,376.674 398.371,378.539 391.005,383.331 
						391.005,383.245 390.107,383.918 386.792,386.077 385.955,379.627 					"/>
					<polygon fill="#C9A063" points="403.309,386.949 393.743,398.536 388.147,398.536 388.147,397.31 391.005,397.31 
						391.005,386.949 398.371,386.949 398.371,389.125 401.229,389.125 401.229,386.949 					"/>
					<polygon fill="#C9A063" points="389.563,373.428 398.811,368.886 403.309,370.259 385.955,379.627 381.378,377.451 
						386.87,374.758 					"/>
					<polygon fill="#956134" points="401.229,386.949 401.229,389.125 398.371,389.125 398.371,386.949 398.371,378.539 
						401.229,376.674 					"/>
					<polygon fill="#956134" points="393.432,398.726 393.432,403.846 365.077,404.01 365.077,398.726 					"/>
					<polygon fill="#956134" points="388.147,386.949 388.147,385.386 390.107,383.918 391.005,383.331 391.005,386.949 
						391.005,397.31 388.147,397.31 					"/>
					<rect x="387.897" y="404.01" fill="#956134" width="2.443" height="13.107"/>
					<polygon fill="#727171" points="389.563,359.216 389.563,373.428 386.87,374.758 386.801,362.065 					"/>
					<polygon fill="#898989" points="389.563,355.106 389.563,359.216 364.766,384.678 350.174,399.658 350.589,393.942 					"/>
					<polygon fill="#C9CACA" points="389.563,355.106 350.589,393.942 312.443,393.942 351.003,356.186 					"/>
					<polygon fill="#C9A063" points="388.147,397.31 388.147,398.536 364.792,398.536 365.923,397.068 373.763,386.949 
						388.147,386.949 					"/>
					<polygon fill="#956134" points="385.955,379.627 386.792,386.077 381.378,384.453 381.378,377.451 					"/>
					<rect x="366.882" y="404.01" fill="#956134" width="2.443" height="13.107"/>
					<polygon fill="#727171" points="364.792,384.704 364.706,396.127 362.038,396.127 362.038,387.804 					"/>
					<polygon fill="#C9CACA" points="350.174,394.149 350.174,399.658 348.689,399.658 348.689,420.458 346.013,420.458 
						346.013,399.676 316.259,399.806 316.259,420.458 313.591,420.458 313.591,399.822 312.823,399.822 312.823,394.149 					"/>
				</g>
				<g>
					<polyline fill="none" stroke="#000000" stroke-linejoin="round" stroke-miterlimit="10" points="350.589,393.942 
						312.443,393.942 351.003,356.186 389.563,355.106 					"/>
					<polygon fill="none" stroke="#000000" stroke-linejoin="round" stroke-miterlimit="10" points="389.563,359.216 
						364.766,384.678 350.174,399.658 350.589,393.942 389.563,355.106 					"/>
					<polygon fill="none" stroke="#000000" stroke-linejoin="round" stroke-miterlimit="10" points="350.174,394.149 
						312.823,394.149 312.823,399.822 313.591,399.822 313.591,420.458 316.259,420.458 316.259,399.806 346.013,399.676 
						346.013,420.458 348.689,420.458 348.689,399.658 350.174,399.658 					"/>
					<polygon fill="none" stroke="#000000" stroke-linejoin="round" stroke-miterlimit="10" points="364.706,396.127 
						362.038,396.127 362.038,387.804 364.792,384.704 					"/>
					<polyline fill="none" stroke="#000000" stroke-linejoin="round" stroke-miterlimit="10" points="386.87,375.181 
						386.87,374.758 386.801,362.065 389.563,359.216 389.563,373.428 389.563,373.799 					"/>
					<polyline fill="none" stroke="#000000" stroke-linejoin="round" stroke-miterlimit="10" points="393.743,398.536 
						388.147,398.536 364.792,398.536 365.923,397.068 373.763,386.949 388.147,386.949 388.493,386.949 					"/>
					<polyline fill="none" stroke="#000000" stroke-linejoin="round" stroke-miterlimit="10" points="400.831,386.949 
						401.229,386.949 403.309,386.949 					"/>
					<polyline fill="none" stroke="#000000" stroke-linejoin="round" stroke-miterlimit="10" points="390.557,386.949 
						391.005,386.949 398.371,386.949 398.733,386.949 					"/>
					<polygon fill="none" stroke="#000000" stroke-linejoin="round" stroke-miterlimit="10" points="393.432,403.846 
						365.077,404.01 365.077,398.726 393.432,398.726 					"/>
					<polygon fill="none" stroke="#000000" stroke-linejoin="round" stroke-miterlimit="10" points="403.309,386.949 
						403.309,391.654 393.432,403.846 393.743,398.536 					"/>
					
						<rect x="366.882" y="404.01" fill="none" stroke="#000000" stroke-linejoin="round" stroke-miterlimit="10" width="2.443" height="13.107"/>
					
						<rect x="387.897" y="404.01" fill="none" stroke="#000000" stroke-linejoin="round" stroke-miterlimit="10" width="2.443" height="13.107"/>
					<polygon fill="none" stroke="#000000" stroke-linejoin="round" stroke-miterlimit="10" points="403.309,404.925 
						400.866,404.925 401.125,394.392 403.309,391.81 					"/>
					<polyline fill="none" stroke="#000000" stroke-linejoin="round" stroke-miterlimit="10" points="398.371,378.539 
						391.005,383.331 390.107,383.918 386.792,386.077 					"/>
					<polyline fill="none" stroke="#000000" stroke-linejoin="round" stroke-miterlimit="10" points="403.309,370.259 
						403.309,375.318 401.229,376.674 					"/>
					<polyline fill="none" stroke="#000000" stroke-linejoin="round" stroke-miterlimit="10" points="381.378,377.451 
						381.378,384.453 386.792,386.077 385.955,379.627 					"/>
					<polygon fill="none" stroke="#000000" stroke-linejoin="round" stroke-miterlimit="10" points="403.309,370.259 
						398.811,368.886 389.563,373.428 386.87,374.758 381.378,377.451 385.955,379.627 					"/>
					<polygon fill="none" stroke="#000000" stroke-linejoin="round" stroke-miterlimit="10" points="391.005,386.949 
						391.005,397.31 388.147,397.31 388.147,386.949 388.147,385.386 390.107,383.918 391.005,383.245 391.005,383.331 					"/>
					<polygon fill="none" stroke="#000000" stroke-linejoin="round" stroke-miterlimit="10" points="401.229,386.949 
						401.229,389.125 398.371,389.125 398.371,386.949 398.371,378.539 401.229,376.674 					"/>
				</g>
			</g>
		</g>
	</g>
	<g>
		<g>
			<g id="XMLID_20_">
				<g>
					<polygon fill="#6A3906" points="479.11,333.989 479.11,346.584 476.765,346.584 477.013,336.468 					"/>
					<polygon fill="#6A3906" points="479.11,329.32 479.11,333.84 469.625,345.548 469.924,340.448 					"/>
					<polygon fill="#6A3906" points="479.11,313.293 479.11,318.151 477.112,319.453 474.368,321.244 467.295,325.847 
						467.295,325.764 466.433,326.41 463.249,328.483 462.444,322.289 					"/>
					<polygon fill="#C9A063" points="479.11,329.32 469.924,340.448 464.551,340.448 464.551,339.271 467.295,339.271 
						467.295,329.32 474.368,329.32 474.368,331.41 477.112,331.41 477.112,329.32 					"/>
					<polygon fill="#C9A063" points="465.91,316.336 474.791,311.975 479.11,313.293 462.444,322.289 458.05,320.199 
						463.323,317.612 					"/>
					<polygon fill="#956134" points="477.112,329.32 477.112,331.41 474.368,331.41 474.368,329.32 474.368,321.244 
						477.112,319.453 					"/>
					<polygon fill="#956134" points="469.625,340.631 469.625,345.548 442.396,345.705 442.396,340.631 					"/>
					<polygon fill="#956134" points="464.551,329.32 464.551,327.819 466.433,326.41 467.295,325.847 467.295,329.32 
						467.295,339.271 464.551,339.271 					"/>
					<rect x="464.311" y="345.705" fill="#956134" width="2.346" height="12.587"/>
					<polygon fill="#727171" points="465.91,302.688 465.91,316.336 463.323,317.612 463.257,305.424 					"/>
					<polygon fill="#898989" points="465.91,298.741 465.91,302.688 442.097,327.14 428.084,341.526 428.481,336.037 					"/>
					<polygon fill="#C9CACA" points="465.91,298.741 428.481,336.037 391.849,336.037 428.88,299.777 					"/>
					<polygon fill="#C9A063" points="464.551,339.271 464.551,340.448 442.121,340.448 443.208,339.038 450.736,329.32 
						464.551,329.32 					"/>
					<polygon fill="#956134" points="462.444,322.289 463.249,328.483 458.05,326.924 458.05,320.199 					"/>
					<rect x="444.128" y="345.705" fill="#956134" width="2.347" height="12.587"/>
					<polygon fill="#727171" points="442.121,327.165 442.039,338.135 439.477,338.135 439.477,330.142 					"/>
					<polygon fill="#C9CACA" points="428.084,336.235 428.084,341.526 426.657,341.526 426.657,361.501 424.087,361.501 
						424.087,341.543 395.514,341.667 395.514,361.501 392.952,361.501 392.952,341.684 392.214,341.684 392.214,336.235 					"/>
				</g>
				<g>
					<polyline fill="none" stroke="#000000" stroke-linejoin="round" stroke-miterlimit="10" points="428.481,336.037 
						391.849,336.037 428.88,299.777 465.91,298.741 					"/>
					<polygon fill="none" stroke="#000000" stroke-linejoin="round" stroke-miterlimit="10" points="465.91,302.688 442.097,327.14 
						428.084,341.526 428.481,336.037 465.91,298.741 					"/>
					<polygon fill="none" stroke="#000000" stroke-linejoin="round" stroke-miterlimit="10" points="428.084,336.235 
						392.214,336.235 392.214,341.684 392.952,341.684 392.952,361.501 395.514,361.501 395.514,341.667 424.087,341.543 
						424.087,361.501 426.657,361.501 426.657,341.526 428.084,341.526 					"/>
					<polygon fill="none" stroke="#000000" stroke-linejoin="round" stroke-miterlimit="10" points="442.039,338.135 
						439.477,338.135 439.477,330.142 442.121,327.165 					"/>
					<polyline fill="none" stroke="#000000" stroke-linejoin="round" stroke-miterlimit="10" points="463.323,318.019 
						463.323,317.612 463.257,305.424 465.91,302.688 465.91,316.336 465.91,316.692 					"/>
					<polyline fill="none" stroke="#000000" stroke-linejoin="round" stroke-miterlimit="10" points="469.924,340.448 
						464.551,340.448 442.121,340.448 443.208,339.038 450.736,329.32 464.551,329.32 464.882,329.32 					"/>
					<polyline fill="none" stroke="#000000" stroke-linejoin="round" stroke-miterlimit="10" points="476.731,329.32 
						477.112,329.32 479.11,329.32 					"/>
					<polyline fill="none" stroke="#000000" stroke-linejoin="round" stroke-miterlimit="10" points="466.864,329.32 
						467.295,329.32 474.368,329.32 474.716,329.32 					"/>
					<polygon fill="none" stroke="#000000" stroke-linejoin="round" stroke-miterlimit="10" points="469.625,345.548 
						442.396,345.705 442.396,340.631 469.625,340.631 					"/>
					<polygon fill="none" stroke="#000000" stroke-linejoin="round" stroke-miterlimit="10" points="479.11,329.32 479.11,333.84 
						469.625,345.548 469.924,340.448 					"/>
					
						<rect x="444.128" y="345.705" fill="none" stroke="#000000" stroke-linejoin="round" stroke-miterlimit="10" width="2.347" height="12.587"/>
					
						<rect x="464.311" y="345.705" fill="none" stroke="#000000" stroke-linejoin="round" stroke-miterlimit="10" width="2.346" height="12.587"/>
					<polygon fill="none" stroke="#000000" stroke-linejoin="round" stroke-miterlimit="10" points="479.11,346.584 
						476.765,346.584 477.013,336.468 479.11,333.989 					"/>
					<polyline fill="none" stroke="#000000" stroke-linejoin="round" stroke-miterlimit="10" points="474.368,321.244 
						467.295,325.847 466.433,326.41 463.249,328.483 					"/>
					<polyline fill="none" stroke="#000000" stroke-linejoin="round" stroke-miterlimit="10" points="479.11,313.293 
						479.11,318.151 477.112,319.453 					"/>
					<polyline fill="none" stroke="#000000" stroke-linejoin="round" stroke-miterlimit="10" points="458.05,320.199 
						458.05,326.924 463.249,328.483 462.444,322.289 					"/>
					<polygon fill="none" stroke="#000000" stroke-linejoin="round" stroke-miterlimit="10" points="479.11,313.293 
						474.791,311.975 465.91,316.336 463.323,317.612 458.05,320.199 462.444,322.289 					"/>
					<polygon fill="none" stroke="#000000" stroke-linejoin="round" stroke-miterlimit="10" points="467.295,329.32 
						467.295,339.271 464.551,339.271 464.551,329.32 464.551,327.819 466.433,326.41 467.295,325.764 467.295,325.847 					"/>
					<polygon fill="none" stroke="#000000" stroke-linejoin="round" stroke-miterlimit="10" points="477.112,329.32 477.112,331.41 
						474.368,331.41 474.368,329.32 474.368,321.244 477.112,319.453 					"/>
				</g>
			</g>
		</g>
	</g>
	<g>
		<g>
			<g id="XMLID_19_">
				<g>
					<polygon fill="#6A3906" points="553.521,280.854 553.521,292.92 551.273,292.92 551.512,283.229 					"/>
					<polygon fill="#6A3906" points="553.521,276.382 553.521,280.711 544.435,291.927 544.721,287.042 					"/>
					<polygon fill="#6A3906" points="553.521,261.027 553.521,265.682 551.607,266.929 548.979,268.645 542.202,273.054 
						542.202,272.974 541.377,273.594 538.326,275.58 537.556,269.646 					"/>
					<polygon fill="#C9A063" points="553.521,276.382 544.721,287.042 539.573,287.042 539.573,285.914 542.202,285.914 
						542.202,276.382 548.979,276.382 548.979,278.383 551.607,278.383 551.607,276.382 					"/>
					<polygon fill="#C9A063" points="538.397,265.166 540.876,263.942 549.384,259.764 553.521,261.027 537.556,269.646 
						533.346,267.644 					"/>
					<polygon fill="#956134" points="551.607,276.382 551.607,278.383 548.979,278.383 548.979,276.382 548.979,268.645 
						551.607,266.929 					"/>
					<polygon fill="#956134" points="544.435,287.216 544.435,291.927 518.349,292.078 518.349,287.216 					"/>
					<polygon fill="#956134" points="539.573,276.382 539.573,274.944 541.377,273.594 542.202,273.054 542.202,276.382 
						542.202,285.914 539.573,285.914 					"/>
					<rect x="539.343" y="292.078" fill="#956134" width="2.248" height="12.058"/>
					<polygon fill="#727171" points="540.876,250.868 540.876,263.942 538.397,265.166 538.334,253.489 					"/>
					<polygon fill="#898989" points="540.876,247.087 540.876,250.868 518.063,274.292 504.639,288.074 505.02,282.816 					"/>
					<polygon fill="#C9CACA" points="540.876,247.087 505.02,282.816 469.927,282.816 505.401,248.08 					"/>
					<polygon fill="#C9A063" points="539.573,285.914 539.573,287.042 518.087,287.042 519.127,285.691 526.34,276.382 
						539.573,276.382 					"/>
					<polygon fill="#956134" points="537.556,269.646 538.326,275.58 533.346,274.086 533.346,267.644 					"/>
					<rect x="520.009" y="292.078" fill="#956134" width="2.248" height="12.058"/>
					<polygon fill="#727171" points="518.087,274.316 518.007,284.826 515.553,284.826 515.553,277.168 					"/>
					<polygon fill="#C9CACA" points="504.639,283.006 504.639,288.074 503.272,288.074 503.272,307.21 500.81,307.21 500.81,288.09 
						473.438,288.209 473.438,307.21 470.982,307.21 470.982,288.225 470.275,288.225 470.275,283.006 					"/>
				</g>
				<g>
					<polyline fill="none" stroke="#000000" stroke-linejoin="round" stroke-miterlimit="10" points="505.02,282.816 
						469.927,282.816 505.401,248.08 540.876,247.087 					"/>
					<polygon fill="none" stroke="#000000" stroke-linejoin="round" stroke-miterlimit="10" points="540.876,250.868 
						518.063,274.292 504.639,288.074 505.02,282.816 540.876,247.087 					"/>
					<polygon fill="none" stroke="#000000" stroke-linejoin="round" stroke-miterlimit="10" points="504.639,283.006 
						470.275,283.006 470.275,288.225 470.982,288.225 470.982,307.21 473.438,307.21 473.438,288.209 500.81,288.09 500.81,307.21 
						503.272,307.21 503.272,288.074 504.639,288.074 					"/>
					<polygon fill="none" stroke="#000000" stroke-linejoin="round" stroke-miterlimit="10" points="518.007,284.826 
						515.553,284.826 515.553,277.168 518.087,274.316 					"/>
					<polyline fill="none" stroke="#000000" stroke-linejoin="round" stroke-miterlimit="10" points="538.397,265.555 
						538.397,265.166 538.334,253.489 540.876,250.868 540.876,263.942 540.876,264.284 					"/>
					<polyline fill="none" stroke="#000000" stroke-linejoin="round" stroke-miterlimit="10" points="544.721,287.042 
						539.573,287.042 518.087,287.042 519.127,285.691 526.34,276.382 539.573,276.382 539.892,276.382 					"/>
					<polyline fill="none" stroke="#000000" stroke-linejoin="round" stroke-miterlimit="10" points="551.242,276.382 
						551.607,276.382 553.521,276.382 					"/>
					<polyline fill="none" stroke="#000000" stroke-linejoin="round" stroke-miterlimit="10" points="541.79,276.382 
						542.202,276.382 548.979,276.382 549.312,276.382 					"/>
					<polygon fill="none" stroke="#000000" stroke-linejoin="round" stroke-miterlimit="10" points="544.435,291.927 
						518.349,292.078 518.349,287.216 544.435,287.216 					"/>
					<polygon fill="none" stroke="#000000" stroke-linejoin="round" stroke-miterlimit="10" points="553.521,276.382 
						553.521,280.711 544.435,291.927 544.721,287.042 					"/>
					
						<rect x="520.009" y="292.078" fill="none" stroke="#000000" stroke-linejoin="round" stroke-miterlimit="10" width="2.248" height="12.058"/>
					
						<rect x="539.343" y="292.078" fill="none" stroke="#000000" stroke-linejoin="round" stroke-miterlimit="10" width="2.248" height="12.058"/>
					<polygon fill="none" stroke="#000000" stroke-linejoin="round" stroke-miterlimit="10" points="553.521,292.92 551.273,292.92 
						551.512,283.229 553.521,280.854 					"/>
					<polyline fill="none" stroke="#000000" stroke-linejoin="round" stroke-miterlimit="10" points="548.979,268.645 
						542.202,273.054 541.377,273.594 538.326,275.58 					"/>
					<polyline fill="none" stroke="#000000" stroke-linejoin="round" stroke-miterlimit="10" points="553.521,261.027 
						553.521,265.682 551.607,266.929 					"/>
					<polyline fill="none" stroke="#000000" stroke-linejoin="round" stroke-miterlimit="10" points="533.346,267.644 
						533.346,274.086 538.326,275.58 537.556,269.646 					"/>
					<polygon fill="none" stroke="#000000" stroke-linejoin="round" stroke-miterlimit="10" points="553.521,261.027 
						549.384,259.764 540.876,263.942 538.397,265.166 533.346,267.644 537.556,269.646 					"/>
					<polygon fill="none" stroke="#000000" stroke-linejoin="round" stroke-miterlimit="10" points="542.202,276.382 
						542.202,285.914 539.573,285.914 539.573,276.382 539.573,274.944 541.377,273.594 542.202,272.974 542.202,273.054 					"/>
					<polygon fill="none" stroke="#000000" stroke-linejoin="round" stroke-miterlimit="10" points="551.607,276.382 
						551.607,278.383 548.979,278.383 548.979,276.382 548.979,268.645 551.607,266.929 					"/>
				</g>
			</g>
		</g>
	</g>
	<g>
		<g>
			<g id="XMLID_24_">
				<g>
					<polygon fill="#6A3906" points="501.719,391.81 501.719,404.925 499.275,404.925 499.534,394.392 					"/>
					<polygon fill="#6A3906" points="501.719,386.949 501.719,391.654 491.842,403.846 492.152,398.536 					"/>
					<polygon fill="#6A3906" points="501.719,370.259 501.719,375.318 499.638,376.674 496.78,378.539 489.415,383.331 
						489.415,383.245 488.518,383.918 485.201,386.077 484.364,379.627 					"/>
					<polygon fill="#C9A063" points="501.719,386.949 492.152,398.536 486.558,398.536 486.558,397.31 489.415,397.31 
						489.415,386.949 496.78,386.949 496.78,389.125 499.638,389.125 499.638,386.949 					"/>
					<polygon fill="#C9A063" points="485.279,374.758 487.974,373.428 497.221,368.886 501.719,370.259 484.364,379.627 
						479.788,377.451 					"/>
					<polygon fill="#956134" points="499.638,386.949 499.638,389.125 496.78,389.125 496.78,386.949 496.78,378.539 
						499.638,376.674 					"/>
					<polygon fill="#956134" points="491.842,398.726 491.842,403.846 463.486,404.01 463.486,398.726 					"/>
					<polygon fill="#956134" points="486.558,386.949 486.558,385.386 488.518,383.918 489.415,383.331 489.415,386.949 
						489.415,397.31 486.558,397.31 					"/>
					<rect x="486.307" y="404.01" fill="#956134" width="2.443" height="13.107"/>
					<polygon fill="#727171" points="487.974,359.216 487.974,373.428 485.279,374.758 485.21,362.065 					"/>
					<polygon fill="#898989" points="487.974,355.106 487.974,359.216 463.176,384.678 448.584,399.658 448.998,393.942 					"/>
					<polygon fill="#C9CACA" points="487.974,355.106 448.998,393.942 410.853,393.942 449.413,356.186 					"/>
					<polygon fill="#C9A063" points="486.558,397.31 486.558,398.536 463.202,398.536 464.333,397.068 472.173,386.949 
						486.558,386.949 					"/>
					<polygon fill="#956134" points="484.364,379.627 485.201,386.077 479.788,384.453 479.788,377.451 					"/>
					<rect x="465.291" y="404.01" fill="#956134" width="2.443" height="13.107"/>
					<polygon fill="#727171" points="463.202,384.704 463.115,396.127 460.447,396.127 460.447,387.804 					"/>
					<polygon fill="#C9CACA" points="448.584,394.149 448.584,399.658 447.099,399.658 447.099,420.458 444.422,420.458 
						444.422,399.676 414.669,399.806 414.669,420.458 412.001,420.458 412.001,399.822 411.232,399.822 411.232,394.149 					"/>
				</g>
				<g>
					<polyline fill="none" stroke="#000000" stroke-linejoin="round" stroke-miterlimit="10" points="448.998,393.942 
						410.853,393.942 449.413,356.186 487.974,355.106 					"/>
					<polygon fill="none" stroke="#000000" stroke-linejoin="round" stroke-miterlimit="10" points="487.974,359.216 
						463.176,384.678 448.584,399.658 448.998,393.942 487.974,355.106 					"/>
					<polygon fill="none" stroke="#000000" stroke-linejoin="round" stroke-miterlimit="10" points="448.584,394.149 
						411.232,394.149 411.232,399.822 412.001,399.822 412.001,420.458 414.669,420.458 414.669,399.806 444.422,399.676 
						444.422,420.458 447.099,420.458 447.099,399.658 448.584,399.658 					"/>
					<polygon fill="none" stroke="#000000" stroke-linejoin="round" stroke-miterlimit="10" points="463.115,396.127 
						460.447,396.127 460.447,387.804 463.202,384.704 					"/>
					<polyline fill="none" stroke="#000000" stroke-linejoin="round" stroke-miterlimit="10" points="485.279,375.181 
						485.279,374.758 485.21,362.065 487.974,359.216 487.974,373.428 487.974,373.799 					"/>
					<polyline fill="none" stroke="#000000" stroke-linejoin="round" stroke-miterlimit="10" points="492.152,398.536 
						486.558,398.536 463.202,398.536 464.333,397.068 472.173,386.949 486.558,386.949 486.902,386.949 					"/>
					<polyline fill="none" stroke="#000000" stroke-linejoin="round" stroke-miterlimit="10" points="499.241,386.949 
						499.638,386.949 501.719,386.949 					"/>
					<polyline fill="none" stroke="#000000" stroke-linejoin="round" stroke-miterlimit="10" points="488.966,386.949 
						489.415,386.949 496.78,386.949 497.143,386.949 					"/>
					<polygon fill="none" stroke="#000000" stroke-linejoin="round" stroke-miterlimit="10" points="491.842,403.846 
						463.486,404.01 463.486,398.726 491.842,398.726 					"/>
					<polygon fill="none" stroke="#000000" stroke-linejoin="round" stroke-miterlimit="10" points="501.719,386.949 
						501.719,391.654 491.842,403.846 492.152,398.536 					"/>
					
						<rect x="465.291" y="404.01" fill="none" stroke="#000000" stroke-linejoin="round" stroke-miterlimit="10" width="2.443" height="13.107"/>
					
						<rect x="486.307" y="404.01" fill="none" stroke="#000000" stroke-linejoin="round" stroke-miterlimit="10" width="2.443" height="13.107"/>
					<polygon fill="none" stroke="#000000" stroke-linejoin="round" stroke-miterlimit="10" points="501.719,404.925 
						499.275,404.925 499.534,394.392 501.719,391.81 					"/>
					<polyline fill="none" stroke="#000000" stroke-linejoin="round" stroke-miterlimit="10" points="496.78,378.539 
						489.415,383.331 488.518,383.918 485.201,386.077 					"/>
					<polyline fill="none" stroke="#000000" stroke-linejoin="round" stroke-miterlimit="10" points="501.719,370.259 
						501.719,375.318 499.638,376.674 					"/>
					<polyline fill="none" stroke="#000000" stroke-linejoin="round" stroke-miterlimit="10" points="479.788,377.451 
						479.788,384.453 485.201,386.077 484.364,379.627 					"/>
					<polygon fill="none" stroke="#000000" stroke-linejoin="round" stroke-miterlimit="10" points="501.719,370.259 
						497.221,368.886 487.974,373.428 485.279,374.758 479.788,377.451 484.364,379.627 					"/>
					<polygon fill="none" stroke="#000000" stroke-linejoin="round" stroke-miterlimit="10" points="489.415,386.949 
						489.415,397.31 486.558,397.31 486.558,386.949 486.558,385.386 488.518,383.918 489.415,383.245 489.415,383.331 					"/>
					<polygon fill="none" stroke="#000000" stroke-linejoin="round" stroke-miterlimit="10" points="499.638,386.949 
						499.638,389.125 496.78,389.125 496.78,386.949 496.78,378.539 499.638,376.674 					"/>
				</g>
			</g>
		</g>
	</g>
	<g>
		<g>
			<g id="XMLID_23_">
				<g>
					<polygon fill="#6A3906" points="577.521,333.989 577.521,346.584 575.174,346.584 575.423,336.468 					"/>
					<polygon fill="#6A3906" points="577.521,329.32 577.521,333.84 568.034,345.548 568.333,340.448 					"/>
					<polygon fill="#6A3906" points="577.521,313.293 577.521,318.151 575.522,319.453 572.777,321.244 565.705,325.847 
						565.705,325.764 564.843,326.41 561.658,328.483 560.854,322.289 					"/>
					<polygon fill="#C9A063" points="577.521,329.32 568.333,340.448 562.96,340.448 562.96,339.271 565.705,339.271 
						565.705,329.32 572.777,329.32 572.777,331.41 575.522,331.41 575.522,329.32 					"/>
					<polygon fill="#C9A063" points="561.733,317.612 564.32,316.336 573.2,311.975 577.521,313.293 560.854,322.289 
						556.459,320.199 					"/>
					<polygon fill="#956134" points="575.522,329.32 575.522,331.41 572.777,331.41 572.777,329.32 572.777,321.244 
						575.522,319.453 					"/>
					<polygon fill="#956134" points="568.034,340.631 568.034,345.548 540.805,345.705 540.805,340.631 					"/>
					<polygon fill="#956134" points="562.96,329.32 562.96,327.819 564.843,326.41 565.705,325.847 565.705,329.32 565.705,339.271 
						562.96,339.271 					"/>
					<rect x="562.72" y="345.705" fill="#956134" width="2.347" height="12.587"/>
					<polygon fill="#727171" points="564.32,302.688 564.32,316.336 561.733,317.612 561.667,305.424 					"/>
					<polygon fill="#898989" points="564.32,298.741 564.32,302.688 540.506,327.14 526.493,341.526 526.892,336.037 					"/>
					<polygon fill="#C9CACA" points="564.32,298.741 526.892,336.037 490.259,336.037 527.289,299.777 					"/>
					<polygon fill="#C9A063" points="562.96,339.271 562.96,340.448 540.531,340.448 541.617,339.038 549.146,329.32 562.96,329.32 
											"/>
					<polygon fill="#956134" points="560.854,322.289 561.658,328.483 556.459,326.924 556.459,320.199 					"/>
					<rect x="542.538" y="345.705" fill="#956134" width="2.346" height="12.587"/>
					<polygon fill="#727171" points="540.531,327.165 540.448,338.135 537.886,338.135 537.886,330.142 					"/>
					<polygon fill="#C9CACA" points="526.493,336.235 526.493,341.526 525.067,341.526 525.067,361.501 522.497,361.501 
						522.497,341.543 493.924,341.667 493.924,361.501 491.361,361.501 491.361,341.684 490.623,341.684 490.623,336.235 					"/>
				</g>
				<g>
					<polyline fill="none" stroke="#000000" stroke-linejoin="round" stroke-miterlimit="10" points="526.892,336.037 
						490.259,336.037 527.289,299.777 564.32,298.741 					"/>
					<polygon fill="none" stroke="#000000" stroke-linejoin="round" stroke-miterlimit="10" points="564.32,302.688 540.506,327.14 
						526.493,341.526 526.892,336.037 564.32,298.741 					"/>
					<polygon fill="none" stroke="#000000" stroke-linejoin="round" stroke-miterlimit="10" points="526.493,336.235 
						490.623,336.235 490.623,341.684 491.361,341.684 491.361,361.501 493.924,361.501 493.924,341.667 522.497,341.543 
						522.497,361.501 525.067,361.501 525.067,341.526 526.493,341.526 					"/>
					<polygon fill="none" stroke="#000000" stroke-linejoin="round" stroke-miterlimit="10" points="540.448,338.135 
						537.886,338.135 537.886,330.142 540.531,327.165 					"/>
					<polyline fill="none" stroke="#000000" stroke-linejoin="round" stroke-miterlimit="10" points="561.733,318.019 
						561.733,317.612 561.667,305.424 564.32,302.688 564.32,316.336 564.32,316.692 					"/>
					<polyline fill="none" stroke="#000000" stroke-linejoin="round" stroke-miterlimit="10" points="568.333,340.448 
						562.96,340.448 540.531,340.448 541.617,339.038 549.146,329.32 562.96,329.32 563.292,329.32 					"/>
					<polyline fill="none" stroke="#000000" stroke-linejoin="round" stroke-miterlimit="10" points="575.141,329.32 
						575.522,329.32 577.521,329.32 					"/>
					<polyline fill="none" stroke="#000000" stroke-linejoin="round" stroke-miterlimit="10" points="565.273,329.32 
						565.705,329.32 572.777,329.32 573.126,329.32 					"/>
					<polygon fill="none" stroke="#000000" stroke-linejoin="round" stroke-miterlimit="10" points="568.034,345.548 
						540.805,345.705 540.805,340.631 568.034,340.631 					"/>
					<polygon fill="none" stroke="#000000" stroke-linejoin="round" stroke-miterlimit="10" points="577.521,329.32 577.521,333.84 
						568.034,345.548 568.333,340.448 					"/>
					
						<rect x="542.538" y="345.705" fill="none" stroke="#000000" stroke-linejoin="round" stroke-miterlimit="10" width="2.346" height="12.587"/>
					
						<rect x="562.72" y="345.705" fill="none" stroke="#000000" stroke-linejoin="round" stroke-miterlimit="10" width="2.347" height="12.587"/>
					<polygon fill="none" stroke="#000000" stroke-linejoin="round" stroke-miterlimit="10" points="577.521,346.584 
						575.174,346.584 575.423,336.468 577.521,333.989 					"/>
					<polyline fill="none" stroke="#000000" stroke-linejoin="round" stroke-miterlimit="10" points="572.777,321.244 
						565.705,325.847 564.843,326.41 561.658,328.483 					"/>
					<polyline fill="none" stroke="#000000" stroke-linejoin="round" stroke-miterlimit="10" points="577.521,313.293 
						577.521,318.151 575.522,319.453 					"/>
					<polyline fill="none" stroke="#000000" stroke-linejoin="round" stroke-miterlimit="10" points="556.459,320.199 
						556.459,326.924 561.658,328.483 560.854,322.289 					"/>
					<polygon fill="none" stroke="#000000" stroke-linejoin="round" stroke-miterlimit="10" points="577.521,313.293 573.2,311.975 
						564.32,316.336 561.733,317.612 556.459,320.199 560.854,322.289 					"/>
					<polygon fill="none" stroke="#000000" stroke-linejoin="round" stroke-miterlimit="10" points="565.705,329.32 
						565.705,339.271 562.96,339.271 562.96,329.32 562.96,327.819 564.843,326.41 565.705,325.764 565.705,325.847 					"/>
					<polygon fill="none" stroke="#000000" stroke-linejoin="round" stroke-miterlimit="10" points="575.522,329.32 575.522,331.41 
						572.777,331.41 572.777,329.32 572.777,321.244 575.522,319.453 					"/>
				</g>
			</g>
		</g>
	</g>
	<g>
		<g>
			<g id="XMLID_22_">
				<g>
					<polygon fill="#6A3906" points="651.932,280.854 651.932,292.92 649.684,292.92 649.922,283.229 					"/>
					<polygon fill="#6A3906" points="651.932,276.382 651.932,280.711 642.845,291.927 643.13,287.042 					"/>
					<polygon fill="#6A3906" points="651.932,261.027 651.932,265.682 650.017,266.929 647.388,268.645 640.612,273.054 
						640.612,272.974 639.786,273.594 636.735,275.58 635.966,269.646 					"/>
					<polygon fill="#C9A063" points="651.932,276.382 643.13,287.042 637.983,287.042 637.983,285.914 640.612,285.914 
						640.612,276.382 647.388,276.382 647.388,278.383 650.017,278.383 650.017,276.382 					"/>
					<polygon fill="#C9A063" points="639.285,263.942 647.793,259.764 651.932,261.027 635.966,269.646 631.756,267.644 
						636.808,265.166 					"/>
					<polygon fill="#956134" points="650.017,276.382 650.017,278.383 647.388,278.383 647.388,276.382 647.388,268.645 
						650.017,266.929 					"/>
					<polygon fill="#956134" points="642.845,287.216 642.845,291.927 616.759,292.078 616.759,287.216 					"/>
					<polygon fill="#956134" points="637.983,276.382 637.983,274.944 639.786,273.594 640.612,273.054 640.612,276.382 
						640.612,285.914 637.983,285.914 					"/>
					<rect x="637.753" y="292.078" fill="#956134" width="2.248" height="12.058"/>
					<polygon fill="#727171" points="639.285,250.868 639.285,263.942 636.808,265.166 636.744,253.489 					"/>
					<polygon fill="#898989" points="639.285,247.087 639.285,250.868 616.473,274.292 603.048,288.074 603.43,282.816 					"/>
					<polygon fill="#C9CACA" points="639.285,247.087 603.43,282.816 568.336,282.816 603.811,248.08 					"/>
					<polygon fill="#C9A063" points="637.983,285.914 637.983,287.042 616.496,287.042 617.537,285.691 624.749,276.382 
						637.983,276.382 					"/>
					<polygon fill="#956134" points="635.966,269.646 636.735,275.58 631.756,274.086 631.756,267.644 					"/>
					<rect x="618.419" y="292.078" fill="#956134" width="2.247" height="12.058"/>
					<polygon fill="#727171" points="616.496,274.316 616.417,284.826 613.962,284.826 613.962,277.168 					"/>
					<polygon fill="#C9CACA" points="603.048,283.006 603.048,288.074 601.682,288.074 601.682,307.21 599.22,307.21 599.22,288.09 
						571.847,288.209 571.847,307.21 569.393,307.21 569.393,288.225 568.686,288.225 568.686,283.006 					"/>
				</g>
				<g>
					<polyline fill="none" stroke="#000000" stroke-linejoin="round" stroke-miterlimit="10" points="603.43,282.816 
						568.336,282.816 603.811,248.08 639.285,247.087 					"/>
					<polygon fill="none" stroke="#000000" stroke-linejoin="round" stroke-miterlimit="10" points="639.285,250.868 
						616.473,274.292 603.048,288.074 603.43,282.816 639.285,247.087 					"/>
					<polygon fill="none" stroke="#000000" stroke-linejoin="round" stroke-miterlimit="10" points="603.048,283.006 
						568.686,283.006 568.686,288.225 569.393,288.225 569.393,307.21 571.847,307.21 571.847,288.209 599.22,288.09 599.22,307.21 
						601.682,307.21 601.682,288.074 603.048,288.074 					"/>
					<polygon fill="none" stroke="#000000" stroke-linejoin="round" stroke-miterlimit="10" points="616.417,284.826 
						613.962,284.826 613.962,277.168 616.496,274.316 					"/>
					<polyline fill="none" stroke="#000000" stroke-linejoin="round" stroke-miterlimit="10" points="636.808,265.555 
						636.808,265.166 636.744,253.489 639.285,250.868 639.285,263.942 639.285,264.284 					"/>
					<polyline fill="none" stroke="#000000" stroke-linejoin="round" stroke-miterlimit="10" points="643.13,287.042 
						637.983,287.042 616.496,287.042 617.537,285.691 624.749,276.382 637.983,276.382 638.301,276.382 					"/>
					<polyline fill="none" stroke="#000000" stroke-linejoin="round" stroke-miterlimit="10" points="649.651,276.382 
						650.017,276.382 651.932,276.382 					"/>
					<polyline fill="none" stroke="#000000" stroke-linejoin="round" stroke-miterlimit="10" points="640.199,276.382 
						640.612,276.382 647.388,276.382 647.722,276.382 					"/>
					<polygon fill="none" stroke="#000000" stroke-linejoin="round" stroke-miterlimit="10" points="642.845,291.927 
						616.759,292.078 616.759,287.216 642.845,287.216 					"/>
					<polygon fill="none" stroke="#000000" stroke-linejoin="round" stroke-miterlimit="10" points="651.932,276.382 
						651.932,280.711 642.845,291.927 643.13,287.042 					"/>
					
						<rect x="618.419" y="292.078" fill="none" stroke="#000000" stroke-linejoin="round" stroke-miterlimit="10" width="2.247" height="12.058"/>
					
						<rect x="637.753" y="292.078" fill="none" stroke="#000000" stroke-linejoin="round" stroke-miterlimit="10" width="2.248" height="12.058"/>
					<polygon fill="none" stroke="#000000" stroke-linejoin="round" stroke-miterlimit="10" points="651.932,292.92 649.684,292.92 
						649.922,283.229 651.932,280.854 					"/>
					<polyline fill="none" stroke="#000000" stroke-linejoin="round" stroke-miterlimit="10" points="647.388,268.645 
						640.612,273.054 639.786,273.594 636.735,275.58 					"/>
					<polyline fill="none" stroke="#000000" stroke-linejoin="round" stroke-miterlimit="10" points="651.932,261.027 
						651.932,265.682 650.017,266.929 					"/>
					<polyline fill="none" stroke="#000000" stroke-linejoin="round" stroke-miterlimit="10" points="631.756,267.644 
						631.756,274.086 636.735,275.58 635.966,269.646 					"/>
					<polygon fill="none" stroke="#000000" stroke-linejoin="round" stroke-miterlimit="10" points="651.932,261.027 
						647.793,259.764 639.285,263.942 636.808,265.166 631.756,267.644 635.966,269.646 					"/>
					<polygon fill="none" stroke="#000000" stroke-linejoin="round" stroke-miterlimit="10" points="640.612,276.382 
						640.612,285.914 637.983,285.914 637.983,276.382 637.983,274.944 639.786,273.594 640.612,272.974 640.612,273.054 					"/>
					<polygon fill="none" stroke="#000000" stroke-linejoin="round" stroke-miterlimit="10" points="650.017,276.382 
						650.017,278.383 647.388,278.383 647.388,276.382 647.388,268.645 650.017,266.929 					"/>
				</g>
			</g>
		</g>
	</g>
</g>

<line class="color_box" fill="none" stroke="#000000" stroke-linejoin="round" stroke-miterlimit="10" x1="613.014" y1="508.252" x2="613.014" y2="423.834"/>
<line class="color_box" fill="none" stroke="#000000" stroke-linejoin="round" stroke-miterlimit="10" x1="613.29" y1="508.252" x2="59.415" y2="506.575"/>
<line class="color_box1" fill="none" stroke="#000000" stroke-linejoin="round" stroke-miterlimit="10" x1="636.924" y1="520.79" x2="48.972" y2="519.01"/>
<line class="color_box3" fill="none" stroke="#000000" stroke-linejoin="round" stroke-miterlimit="10" x1="727.103" y1="529.936" x2="40.305" y2="527.864"/>
<line class="color_box" fill="none" stroke="#000000" stroke-linejoin="round" stroke-miterlimit="10" x1="69.587" y1="276.423" x2="69.587" y2="300.017"/>
<line class="color_box2" fill="none" stroke="#000000" stroke-linejoin="round" stroke-miterlimit="10" x1="636.937" y1="520.776" x2="635.573" y2="372.396"/>
<line class="color_box2" fill="none" stroke="#000000" stroke-linejoin="round" stroke-miterlimit="10" x1="72.68" y1="266.04" x2="72.68" y2="299.018"/>
<line class="color_box3" fill="none" stroke="#000000" stroke-linejoin="round" stroke-miterlimit="10" x1="726.972" y1="529.693" x2="726.972" y2="421.497"/>
<line class="color_box3" fill="none" stroke="#000000" stroke-linejoin="round" stroke-miterlimit="10" x1="76.488" y1="253.24" x2="76.488" y2="297.047"/>
<line class="color_box6" fill="none" stroke="#000000" stroke-linejoin="round" stroke-miterlimit="10" x1="359.643" y1="196.397" x2="369.413" y2="196.397"/>
<line class="color_box6" fill="none" stroke="#000000" stroke-linejoin="round" stroke-miterlimit="10" x1="369.413" y1="196.397" x2="369.413" y2="153.424"/>
<line class="color_box6" fill="none" stroke="#000000" stroke-linejoin="round" stroke-miterlimit="10" x1="192.626" y1="156.496" x2="98.969" y2="214.09"/>
<line class="color_box6" fill="none" stroke="#000000" stroke-linejoin="round" stroke-miterlimit="10" x1="98.969" y1="214.09" x2="98.969" y2="283.287"/>
<line class="color_box5" fill="none" stroke="#000000" stroke-linejoin="round" stroke-miterlimit="10" x1="302.116" y1="107.442" x2="302.116" y2="87.2"/>
<line class="color_box5" fill="none" stroke="#000000" stroke-linejoin="round" stroke-miterlimit="10" x1="302.116" y1="87.2" x2="274.53" y2="87.2"/>
<line class="color_box5" fill="none" stroke="#000000" stroke-linejoin="round" stroke-miterlimit="10" x1="274.53" y1="87.2" x2="92.969" y2="197.493"/>
<line class="color_box4" fill="none" stroke="#E60012" stroke-linejoin="round" stroke-miterlimit="10" x1="383.81" y1="103.893" x2="383.81" y2="62.633"/>
<line class="color_box5" fill="none" stroke="#000000" stroke-linejoin="round" stroke-miterlimit="10" x1="92.969" y1="197.493" x2="92.969" y2="288.36"/>
<line class="color_box4" fill="none" stroke="#E60012" stroke-linejoin="round" stroke-miterlimit="10" x1="383.81" y1="62.633" x2="269.949" y2="62.633"/>
<line class="color_box4" fill="none" stroke="#E60012" stroke-linejoin="round" stroke-miterlimit="10" x1="269.949" y1="62.633" x2="80.969" y2="179.283"/>
<line class="color_box4" fill="none" stroke="#E60012" stroke-linejoin="round" stroke-miterlimit="10" x1="80.969" y1="179.283" x2="80.969" y2="293.42"/>
<g>
	<g>
		<g>
			<g id="XMLID_10_">
				<g>
					<polygon fill="#595757" points="288.106,204.077 288.404,207.996 136.524,302.404 136.138,300.489 136.089,300.252 
						136.261,300.148 136.534,300.166 					"/>
					<polygon fill="#B5B5B6" points="288.106,204.077 136.261,300.148 122.475,299.017 280.473,199.136 					"/>
					<polygon fill="#076033" points="274.53,122.225 280.473,199.136 125.666,296.411 125.633,295.51 125.642,295.5 
						124.646,265.472 123.063,217.774 					"/>
					<polygon fill="#22AC38" points="274.53,122.225 122.893,216.775 119.254,214.09 268.614,122.021 					"/>
					<polygon fill="#727171" points="136.138,300.489 136.524,302.404 124.022,303.878 122.475,299.017 					"/>
					<polygon fill="#00913A" points="119.254,214.09 123.046,217.555 124.646,265.472 125.633,295.51 122.475,299.017 					"/>
				</g>
				<g>
					<polygon fill="none" stroke="#000000" stroke-linejoin="round" stroke-miterlimit="10" points="280.473,199.136 
						125.666,296.411 125.633,295.51 124.646,265.472 123.063,217.774 274.53,122.225 					"/>
					<polygon fill="none" stroke="#000000" stroke-linejoin="round" stroke-miterlimit="10" points="288.106,204.077 
						136.534,300.166 136.261,300.148 122.475,299.017 280.473,199.136 					"/>
					<polygon fill="none" stroke="#000000" stroke-linejoin="round" stroke-miterlimit="10" points="124.646,265.472 125.642,295.5 
						125.633,295.51 122.475,299.017 119.254,214.09 123.046,217.555 					"/>
					<polygon fill="none" stroke="#000000" stroke-linejoin="round" stroke-miterlimit="10" points="274.53,122.225 
						122.893,216.775 119.254,214.09 268.614,122.021 					"/>
					<polyline fill="none" stroke="#000000" stroke-linejoin="round" stroke-miterlimit="10" points="136.524,302.404 
						124.022,303.878 122.475,299.017 136.138,300.489 					"/>
					<polygon fill="none" stroke="#000000" stroke-linejoin="round" stroke-miterlimit="10" points="288.106,204.077 
						288.404,207.996 136.524,302.404 136.138,300.489 136.089,300.252 136.261,300.148 					"/>
				</g>
			</g>
		</g>
		<g id="XMLID_11_">
			<g>
				<polygon fill="#B7E1EE" points="275.777,138.377 279.805,187.412 207.113,232.723 201.079,185.306 				"/>
			</g>
			<g>
				<polygon fill="none" stroke="#000000" stroke-linejoin="round" stroke-miterlimit="10" points="279.805,187.412 
					207.113,232.723 201.079,185.306 275.777,138.377 				"/>
			</g>
		</g>
	</g>
	<g id="XMLID_12_">
		<g>
			<polygon fill="#F9F7BE" points="277.64,162.493 329.092,187.261 328.801,187.701 322.336,197.36 206.331,219.7 			"/>
			<polygon fill="#3E3A39" points="360.895,184.278 361.539,193.977 351.883,206.303 351.615,197.271 			"/>
			<polygon fill="#727171" points="354.901,146.061 347.584,156.318 323.458,157.919 330.285,147.695 			"/>
			<polygon fill="#3E3A39" points="347.584,156.318 354.901,146.061 355.164,150.013 347.61,160.786 			"/>
			<polygon fill="#1F1E1D" points="351.299,197.493 351.883,206.303 321.927,207.96 321.364,199.479 			"/>
			<polygon fill="#1F1E1D" points="347.325,156.496 347.61,160.786 324.001,162.493 323.708,158.063 			"/>
			<path fill="#727171" d="M341.729,190.421l-0.322-4.85l19.487-1.293l-9.28,12.993l-30.573,2.029l1.294-1.94l0.02-0.001
				l6.444-9.658l0.292-0.44l0.611-0.913l8.841-0.587l0.322,4.85l0.08-0.005c-0.024,0.082-0.039,0.173-0.032,0.263
				c0.038,0.579,0.698,1.006,1.466,0.955c0.778-0.052,1.366-0.562,1.327-1.141c-0.006-0.09-0.032-0.178-0.057-0.256L341.729,190.421
				z"/>
			<path fill="#1F1E1D" d="M341.649,190.426c0.025,0.078,0.051,0.167,0.057,0.256c0.039,0.579-0.549,1.089-1.327,1.141
				c-0.769,0.051-1.428-0.376-1.466-0.955c-0.006-0.09,0.008-0.181,0.032-0.263l-0.08,0.005l-0.322-4.85l-1.601-24.127l2.864-0.19
				l1.601,24.127l0.322,4.85L341.649,190.426z"/>
		</g>
		<g>
			<polyline fill="none" stroke="#000000" stroke-linejoin="round" stroke-miterlimit="10" points="329.092,187.261 
				329.703,186.348 338.544,185.761 339.023,185.729 			"/>
			<polyline fill="none" stroke="#000000" stroke-linejoin="round" stroke-miterlimit="10" points="351.615,197.271 321.042,199.3 
				322.336,197.36 328.801,187.701 			"/>
			<polyline fill="none" stroke="#000000" stroke-linejoin="round" stroke-miterlimit="10" points="340.899,185.605 
				341.408,185.571 360.895,184.278 			"/>
			<polygon fill="none" stroke="#000000" stroke-linejoin="round" stroke-miterlimit="10" points="351.883,206.303 321.927,207.96 
				321.364,199.479 351.299,197.493 			"/>
			<polygon fill="none" stroke="#000000" stroke-linejoin="round" stroke-miterlimit="10" points="360.895,184.278 361.539,193.977 
				351.883,206.303 351.615,197.271 			"/>
			<polyline fill="none" stroke="#000000" stroke-linejoin="round" stroke-miterlimit="10" points="347.584,156.318 
				323.458,157.919 330.285,147.695 354.901,146.061 			"/>
			<polygon fill="none" stroke="#000000" stroke-linejoin="round" stroke-miterlimit="10" points="347.61,160.786 324.001,162.493 
				323.708,158.063 347.325,156.496 			"/>
			<polygon fill="none" stroke="#000000" stroke-linejoin="round" stroke-miterlimit="10" points="354.901,146.061 355.164,150.013 
				347.61,160.786 347.584,156.318 			"/>
			<path fill="none" stroke="#000000" stroke-linejoin="round" stroke-miterlimit="10" d="M341.408,185.571l-1.601-24.127
				l-2.864,0.19l1.601,24.127l0.322,4.85l0.08-0.005c-0.024,0.082-0.039,0.173-0.032,0.263c0.038,0.579,0.698,1.006,1.466,0.955
				c0.778-0.052,1.366-0.562,1.327-1.141c-0.006-0.09-0.032-0.178-0.057-0.256l0.08-0.005L341.408,185.571z"/>
			<polygon fill="none" stroke="#000000" stroke-linejoin="round" stroke-miterlimit="10" points="328.801,187.701 322.356,197.359 
				322.336,197.36 206.331,219.7 277.64,162.493 329.092,187.261 			"/>
		</g>
	</g>
	<g id="XMLID_15_">
		<g>
			<path fill="#3E3A39" d="M192.729,320.483c-0.888,1.148,4.413,7.52,6.192,7.967l-13.518,7.024l-1.693-2.202l-1.576-2.06
				l10.396-10.927L192.729,320.483z"/>
			<path fill="#1F1E1D" d="M198.88,314.317c2.559-0.904,5.493-0.149,7.201,2.08c1.745,2.263,1.689,5.354,0.079,7.609
				c-2.035-0.736-8.691-8.902-7.259-9.632L198.88,314.317z"/>
			<polygon fill="#3E3A39" points="71.675,303.554 76.115,326.968 71.747,324.37 67.059,301.825 			"/>
			<polygon fill="#1F1E1D" points="105.619,285.032 108.396,305.74 76.115,326.968 71.675,303.554 			"/>
			<path fill="#1F1E1D" d="M195.464,317.209l-0.056-0.03c0.41-0.706,0.962-1.355,1.649-1.877c0.57-0.44,1.182-0.766,1.823-0.984
				l0.021,0.058c-1.432,0.729,5.224,8.896,7.259,9.632c-0.363,0.514-0.816,0.983-1.351,1.396c-0.644,0.483-1.35,0.847-2.073,1.061
				l-0.003-0.021C201.01,326.198,194.534,318.405,195.464,317.209z"/>
			<polygon fill="#595757" points="105.619,285.032 71.675,303.554 67.059,301.825 99.759,283.287 			"/>
			<path fill="#3E3A39" d="M198.921,328.45c-1.779-0.447-7.081-6.818-6.192-7.967l-0.199-0.197l2.695-2.83l0.003,0.02
				c0.053-0.102,0.105-0.202,0.18-0.297l0.056,0.03c-0.93,1.196,5.546,8.989,7.268,9.233l0.003,0.021
				c-0.065,0.032-0.144,0.046-0.211,0.068l0.027,0.036L198.921,328.45z"/>
		</g>
		<g>
			<polyline fill="none" stroke="#000000" stroke-linejoin="round" stroke-miterlimit="10" points="105.619,285.032 108.396,305.74 
				76.115,326.968 			"/>
			<polyline fill="none" stroke="#000000" stroke-linejoin="round" stroke-miterlimit="10" points="71.675,303.554 76.115,326.968 
				71.747,324.37 67.059,301.825 			"/>
			<polygon fill="none" stroke="#000000" stroke-linejoin="round" stroke-miterlimit="10" points="105.619,285.032 71.675,303.554 
				67.059,301.825 99.759,283.287 			"/>
			<path fill="none" stroke="#000000" stroke-linejoin="round" stroke-miterlimit="10" d="M95.851,314.305
				c4.479,12.772,22.608,15.468,35.2,8.938c12.582-6.527,34.544,1.68,36.862,6.298c1.437,2.858,6.636,3.83,10.802,3.983
				c2.17,0.082,4.057-0.05,4.996-0.252c0.185-0.044,0.331-0.08,0.445-0.122"/>
			<path fill="none" stroke="#FFFFFF" stroke-linejoin="round" stroke-miterlimit="10" d="M195.58,317.116
				c-0.045,0.029-0.081,0.056-0.115,0.093c-0.93,1.196,5.546,8.989,7.268,9.233"/>
			<path fill="none" stroke="#9FA0A0" stroke-width="0.5" stroke-linejoin="round" stroke-miterlimit="10" d="M198.901,314.375
				c-1.432,0.729,5.224,8.896,7.259,9.632c0.066,0.028,0.119,0.039,0.172,0.05"/>
			<path fill="none" stroke="#9FA0A0" stroke-width="0.5" stroke-linejoin="round" stroke-miterlimit="10" d="M192.852,320.38
				c-0.055,0.03-0.091,0.058-0.123,0.104c-0.888,1.148,4.413,7.52,6.192,7.967c0.053,0.011,0.106,0.021,0.147,0.024"/>
			<path fill="none" stroke="#000000" stroke-linejoin="round" stroke-miterlimit="10" d="M202.736,326.463
				c0.724-0.214,1.43-0.577,2.073-1.061c0.535-0.412,0.988-0.882,1.351-1.396c1.611-2.256,1.667-5.347-0.079-7.609
				c-1.708-2.229-4.642-2.984-7.201-2.08c-0.641,0.219-1.252,0.544-1.823,0.984c-0.688,0.521-1.24,1.171-1.649,1.877
				c-0.074,0.095-0.127,0.195-0.18,0.297l-0.003-0.02l-2.695,2.83l-10.396,10.927l1.576,2.06l1.693,2.202l13.518-7.024l3.631-1.883
				l-0.027-0.036C202.592,326.509,202.67,326.495,202.736,326.463z"/>
		</g>
	</g>
	<g>
		<g id="XMLID_13_">
			<g>
				<polygon fill="#B7E1EE" points="330.8,94.437 331.938,111.288 304.151,130.069 302.116,111.934 				"/>
				<polygon fill="#1F1E1D" points="325.422,62.633 318.105,72.89 293.979,74.491 300.807,64.266 				"/>
				<polygon fill="#3E3A39" points="318.105,72.89 325.422,62.633 325.684,66.574 318.131,77.358 				"/>
				<polygon fill="#595757" points="317.847,73.067 318.131,77.358 294.522,79.055 294.229,74.634 				"/>
				<polygon fill="#1F1E1D" points="316.982,77.564 318.644,97.007 315.553,98.755 314.159,77.752 				"/>
				<polygon fill="#1F1E1D" points="336.018,113.413 333.977,89.455 296.506,112.276 294.463,111.69 334.89,87.2 336.501,87.925 
					336.423,87.96 338.054,112.075 338.103,112.052 338.326,114.211 299.508,139.999 299.337,137.424 				"/>
				<polygon fill="#1F1E1D" points="296.506,112.276 299.508,139.999 297.401,138.304 294.463,111.69 				"/>
			</g>
			<g>
				<polygon fill="none" stroke="#000000" stroke-linejoin="round" stroke-miterlimit="10" points="331.938,111.288 
					304.151,130.069 302.116,111.934 330.8,94.437 				"/>
				<polyline fill="none" stroke="#000000" stroke-linejoin="round" stroke-miterlimit="10" points="318.105,72.89 293.979,74.491 
					300.807,64.266 325.422,62.633 				"/>
				<polygon fill="none" stroke="#000000" stroke-linejoin="round" stroke-miterlimit="10" points="318.131,77.358 294.522,79.055 
					294.229,74.634 317.847,73.067 				"/>
				<polygon fill="none" stroke="#000000" stroke-linejoin="round" stroke-miterlimit="10" points="325.422,62.633 325.684,66.574 
					318.131,77.358 318.105,72.89 				"/>
				<polygon fill="none" stroke="#000000" stroke-linejoin="round" stroke-miterlimit="10" points="318.644,97.007 315.553,98.755 
					314.159,77.752 316.982,77.564 				"/>
				<polyline fill="none" stroke="#000000" stroke-linejoin="round" stroke-miterlimit="10" points="296.506,112.276 
					333.977,89.455 336.018,113.413 299.337,137.424 299.508,139.999 338.326,114.211 338.103,112.052 338.054,112.075 
					336.423,87.96 336.501,87.925 334.89,87.2 294.463,111.69 				"/>
				<polygon fill="none" stroke="#000000" stroke-linejoin="round" stroke-miterlimit="10" points="299.508,139.999 
					297.401,138.304 294.463,111.69 296.506,112.276 				"/>
			</g>
		</g>
	</g>
	<g>
		<g id="XMLID_14_">
			<g>
				<polygon fill="#898989" points="401.528,102.717 403.395,130.845 399.068,135.261 397.222,107.442 				"/>
				<polygon fill="#B5B5B6" points="401.528,102.717 397.222,107.442 369.413,109.288 374.627,104.502 				"/>
				
					<rect x="391.386" y="128.126" transform="matrix(-0.0661 -0.9978 0.9978 -0.0661 289.5569 531.2654)" fill="#898989" width="4.01" height="4.01"/>
				
					<rect x="391.016" y="122.473" transform="matrix(-0.0662 -0.9978 0.9978 -0.0662 294.813 524.8685)" fill="#898989" width="4" height="4.01"/>
				
					<rect x="390.661" y="117.2" transform="matrix(-0.0661 -0.9978 0.9978 -0.0661 299.6828 518.8927)" fill="#898989" width="4.01" height="4.01"/>
				
					<rect x="390.272" y="111.268" transform="matrix(-0.0663 -0.9978 0.9978 -0.0663 305.2495 512.1904)" fill="#898989" width="4" height="4.01"/>
				
					<rect x="385.733" y="128.506" transform="matrix(-0.0662 -0.9978 0.9978 -0.0662 283.2043 526.038)" fill="#898989" width="4.01" height="4"/>
				
					<rect x="385.363" y="122.853" transform="matrix(-0.0663 -0.9978 0.9978 -0.0663 288.4604 519.6402)" fill="#898989" width="4" height="4"/>
				
					<rect x="385.008" y="117.58" transform="matrix(-0.0662 -0.9978 0.9978 -0.0662 293.3302 513.6636)" fill="#898989" width="4.01" height="4"/>
				
					<rect x="384.62" y="111.648" transform="matrix(-0.0662 -0.9978 0.9978 -0.0662 298.8004 506.9397)" fill="#898989" width="4" height="4"/>
				
					<rect x="379.677" y="128.908" transform="matrix(-0.0662 -0.9978 0.9978 -0.0662 276.3455 520.4231)" fill="#898989" width="4.01" height="4"/>
				
					<rect x="379.306" y="123.255" transform="matrix(-0.0663 -0.9978 0.9978 -0.0663 281.601 514.0256)" fill="#898989" width="4" height="4"/>
				
					<rect x="378.951" y="117.982" transform="matrix(-0.0662 -0.9978 0.9978 -0.0662 286.4714 508.0488)" fill="#898989" width="4.01" height="4"/>
				
					<rect x="378.563" y="112.05" transform="matrix(-0.0663 -0.9978 0.9978 -0.0663 291.989 501.3353)" fill="#898989" width="4" height="4"/>
				
					<rect x="373.714" y="129.298" transform="matrix(-0.0662 -0.9978 0.9978 -0.0662 269.5906 514.8949)" fill="#898989" width="4.01" height="4.01"/>
				
					<rect x="373.345" y="123.646" transform="matrix(-0.0662 -0.9978 0.9978 -0.0662 274.8029 508.4866)" fill="#898989" width="4" height="4.01"/>
				
					<rect x="372.99" y="118.373" transform="matrix(-0.0662 -0.9978 0.9978 -0.0662 279.7228 502.5227)" fill="#898989" width="4.01" height="4.01"/>
				
					<rect x="372.601" y="112.44" transform="matrix(-0.0662 -0.9978 0.9978 -0.0662 285.188 495.7969)" fill="#898989" width="4" height="4.01"/>
				<path fill="#C9CACA" d="M371.259,137.106l-1.846-27.819l27.809-1.845l1.846,27.819L371.259,137.106z M376.734,116.309
					l-0.265-3.992l-4.001,0.266l0.265,3.991L376.734,116.309z M377.128,122.245l-0.266-4.001l-4.001,0.266l0.266,4.001
					L377.128,122.245z M377.478,127.514l-0.265-3.991l-4.001,0.266l0.265,3.991L377.478,127.514z M377.853,133.171l-0.266-4.001
					l-4.001,0.266l0.265,4.001L377.853,133.171z M382.691,115.913l-0.265-3.991l-3.991,0.265l0.265,3.991L382.691,115.913z
					 M383.085,121.85l-0.266-4.001l-3.991,0.265l0.266,4.001L383.085,121.85z M383.435,127.119l-0.265-3.991l-3.991,0.265
					l0.265,3.991L383.435,127.119z M383.81,132.776l-0.266-4.001l-3.991,0.265l0.266,4.001L383.81,132.776z M388.748,115.511
					l-0.265-3.991l-3.991,0.265l0.265,3.991L388.748,115.511z M389.142,121.448l-0.266-4.001l-3.991,0.265l0.266,4.001
					L389.142,121.448z M389.491,126.716l-0.265-3.991l-3.991,0.265l0.265,3.991L389.491,126.716z M389.867,132.374l-0.266-4.001
					l-3.991,0.265l0.266,4.001L389.867,132.374z M391.257,128.263l0.266,4.001l4.001-0.266l-0.265-4.001L391.257,128.263z
					 M395.148,126.341l-0.265-3.991l-4.001,0.265l0.265,3.991L395.148,126.341z M394.799,121.073l-0.265-4.001l-4.001,0.266
					l0.266,4.001L394.799,121.073z M394.405,115.136l-0.265-3.991l-4.001,0.266l0.265,3.991L394.405,115.136z"/>
			</g>
			<g>
				<polyline fill="none" stroke="#000000" stroke-linejoin="round" stroke-miterlimit="10" points="399.068,135.261 
					371.259,137.106 369.413,109.288 				"/>
				
					<rect x="372.596" y="112.446" transform="matrix(0.9978 -0.0661 0.0661 0.9978 -6.7477 25.0202)" fill="none" stroke="#000000" stroke-linejoin="round" stroke-miterlimit="10" width="4.01" height="4"/>
				
					<rect x="378.563" y="112.05" transform="matrix(0.9978 -0.0662 0.0662 0.9978 -6.7119 25.4289)" fill="none" stroke="#000000" stroke-linejoin="round" stroke-miterlimit="10" width="4" height="4"/>
				
					<rect x="384.62" y="111.648" transform="matrix(0.9978 -0.0662 0.0662 0.9978 -6.6721 25.8287)" fill="none" stroke="#000000" stroke-linejoin="round" stroke-miterlimit="10" width="4" height="4"/>
				
					<rect x="390.267" y="111.273" transform="matrix(0.9978 -0.0662 0.0662 0.9978 -6.6413 26.2314)" fill="none" stroke="#000000" stroke-linejoin="round" stroke-miterlimit="10" width="4.01" height="4"/>
				
					<rect x="372.99" y="118.373" transform="matrix(0.9978 -0.0662 0.0662 0.9978 -7.1506 25.1056)" fill="none" stroke="#000000" stroke-linejoin="round" stroke-miterlimit="10" width="4.01" height="4.01"/>
				
					<rect x="378.957" y="117.977" transform="matrix(0.9978 -0.0662 0.0662 0.9978 -7.1036 25.4679)" fill="none" stroke="#000000" stroke-linejoin="round" stroke-miterlimit="10" width="4" height="4.01"/>
				
					<rect x="385.013" y="117.575" transform="matrix(0.9978 -0.0662 0.0662 0.9978 -7.0637 25.8678)" fill="none" stroke="#000000" stroke-linejoin="round" stroke-miterlimit="10" width="4" height="4.01"/>
				
					<rect x="390.661" y="117.2" transform="matrix(0.9978 -0.0662 0.0662 0.9978 -7.0341 26.2737)" fill="none" stroke="#000000" stroke-linejoin="round" stroke-miterlimit="10" width="4.01" height="4.01"/>
				
					<rect x="373.34" y="123.651" transform="matrix(0.9978 -0.0662 0.0662 0.9978 -7.4992 25.1404)" fill="none" stroke="#000000" stroke-linejoin="round" stroke-miterlimit="10" width="4.01" height="4"/>
				
					<rect x="379.306" y="123.255" transform="matrix(0.9978 -0.0662 0.0662 0.9978 -7.4517 25.5026)" fill="none" stroke="#000000" stroke-linejoin="round" stroke-miterlimit="10" width="4" height="4"/>
				
					<rect x="385.363" y="122.853" transform="matrix(0.9978 -0.0663 0.0663 0.9978 -7.4239 25.9506)" fill="none" stroke="#000000" stroke-linejoin="round" stroke-miterlimit="10" width="4" height="4"/>
				
					<rect x="391.011" y="122.478" transform="matrix(0.9978 -0.0661 0.0661 0.9978 -7.3708 26.2598)" fill="none" stroke="#000000" stroke-linejoin="round" stroke-miterlimit="10" width="4.01" height="4"/>
				
					<rect x="373.715" y="129.298" transform="matrix(0.9978 -0.0662 0.0662 0.9978 -7.872 25.1746)" fill="none" stroke="#000000" stroke-linejoin="round" stroke-miterlimit="10" width="4.01" height="4.01"/>
				
					<rect x="379.682" y="128.903" transform="matrix(0.9978 -0.0663 0.0663 0.9978 -7.8377 25.5873)" fill="none" stroke="#000000" stroke-linejoin="round" stroke-miterlimit="10" width="4" height="4.01"/>
				
					<rect x="385.738" y="128.501" transform="matrix(0.9978 -0.0663 0.0663 0.9978 -7.7977 25.9879)" fill="none" stroke="#000000" stroke-linejoin="round" stroke-miterlimit="10" width="4" height="4.01"/>
				
					<rect x="391.386" y="128.126" transform="matrix(0.9978 -0.0662 0.0662 0.9978 -7.7563 26.3457)" fill="none" stroke="#000000" stroke-linejoin="round" stroke-miterlimit="10" width="4.01" height="4.01"/>
				<polyline fill="none" stroke="#000000" stroke-linejoin="round" stroke-miterlimit="10" points="397.222,107.442 
					369.413,109.288 374.627,104.502 401.528,102.717 				"/>
				<polygon fill="none" stroke="#000000" stroke-linejoin="round" stroke-miterlimit="10" points="401.528,102.717 
					403.395,130.845 399.068,135.261 397.222,107.442 				"/>
			</g>
		</g>
	</g>
	<g>
		<g id="XMLID_9_">
			<g>
				<polygon fill="#40220F" points="327.83,239.026 327.747,252.911 250.58,308.733 250.675,293.653 				"/>
				<polygon fill="#956134" points="327.83,239.026 250.675,293.653 191.927,288.36 268.713,238.428 				"/>
				<polygon fill="#6A3906" points="250.308,293.657 250.58,308.733 194.221,303.501 191.927,288.36 				"/>
			</g>
			<g>
				<polyline fill="none" stroke="#000000" stroke-linejoin="round" stroke-miterlimit="10" points="250.675,293.653 
					191.927,288.36 268.713,238.428 327.83,239.026 				"/>
				<polygon fill="none" stroke="#000000" stroke-linejoin="round" stroke-miterlimit="10" points="250.58,308.733 194.221,303.501 
					191.927,288.36 250.308,293.657 				"/>
				<polygon fill="none" stroke="#000000" stroke-linejoin="round" stroke-miterlimit="10" points="250.58,308.733 250.675,293.653 
					327.83,239.026 327.747,252.911 				"/>
			</g>
		</g>
	</g>
</g>
<line onclick="aaa()" class="color_box" fill="none" stroke="#000000" stroke-linejoin="round" stroke-miterlimit="10" x1="69.587" y1="276.423" x2="59.805" y2="276.423"/>
<line class="color_box" fill="none" stroke="#000000" stroke-linejoin="round" stroke-miterlimit="10" x1="59.805" y1="276.423" x2="59.805" y2="506.575"/>
<line class="color_box2" fill="none" stroke="#000000" stroke-linejoin="round" stroke-miterlimit="10" x1="48.972" y1="519.01" x2="48.972" y2="266.04"/>
<line class="color_box3" fill="none" stroke="#000000" stroke-linejoin="round" stroke-miterlimit="10" x1="40.305" y1="527.594" x2="40.305" y2="253.24"/>
<line class="color_box2" fill="none" stroke="#000000" stroke-linejoin="round" stroke-miterlimit="10" x1="48.972" y1="266.04" x2="72.68" y2="266.04"/>
<line class="color_box3" fill="none" stroke="#000000" stroke-linejoin="round" stroke-miterlimit="10" x1="40.305" y1="253.24" x2="76.68" y2="253.24"/>
<line class="color_box6" fill="none" stroke="#000000" stroke-linejoin="round" stroke-miterlimit="10" x1="369.413" y1="153.424" x2="192.626" y2="156.496"/>

<text class="hide" x="390" y="500" style="font-size:20px;">HDM1、USB、I/O</text>
<!--<text x="630" y="350" style="font-size:20px;">HDM1</text>-->
<text class="hide" x="720" y="380" style="font-size:20px;">HDM1、USB</text>
<text class="hide" x="150" y="50" style="font-size:20px;">AC、IR、USB OUT、HDML OUT</text>
<text class="hide" x="300" y="230" style="font-size:20px;">USB、RS-232、HDML OUT</text>

</svg>


